<?xml version="1.0" encoding="utf-8" standalone="no"?>
<!DOCTYPE svg PUBLIC "-//W3C//DTD SVG 1.1//EN"
  "http://www.w3.org/Graphics/SVG/1.1/DTD/svg11.dtd">
<!-- Created with matplotlib (https://matplotlib.org/) -->
<svg height="216pt" version="1.1" viewBox="0 0 144 216" width="144pt" xmlns="http://www.w3.org/2000/svg" xmlns:xlink="http://www.w3.org/1999/xlink">
 <metadata>
  <rdf:RDF xmlns:cc="http://creativecommons.org/ns#" xmlns:dc="http://purl.org/dc/elements/1.1/" xmlns:rdf="http://www.w3.org/1999/02/22-rdf-syntax-ns#">
   <cc:Work>
    <dc:type rdf:resource="http://purl.org/dc/dcmitype/StillImage"/>
    <dc:date>2021-02-01T09:17:17.798618</dc:date>
    <dc:format>image/svg+xml</dc:format>
    <dc:creator>
     <cc:Agent>
      <dc:title>Matplotlib v3.3.3, https://matplotlib.org/</dc:title>
     </cc:Agent>
    </dc:creator>
   </cc:Work>
  </rdf:RDF>
 </metadata>
 <defs>
  <style type="text/css">*{stroke-linecap:butt;stroke-linejoin:round;}</style>
 </defs>
 <g id="figure_1">
  <g id="patch_1">
   <path d="M 0 216 
L 144 216 
L 144 0 
L 0 0 
z
" style="fill:#ffffff;"/>
  </g>
  <g id="axes_1">
   <g id="patch_2">
    <path d="M 28.8 172.8 
L 100.8 172.8 
L 100.8 43.2 
L 28.8 43.2 
z
" style="fill:#ffffff;"/>
   </g>
   <g id="patch_3">
    <path clip-path="url(#p1591919548)" d="M 64.8 54 
L 57.507692 54 
L 57.507692 63.818182 
L 64.8 63.818182 
z
"/>
   </g>
   <g id="patch_4">
    <path clip-path="url(#p1591919548)" d="M 64.8 73.636364 
L 63.784615 73.636364 
L 63.784615 83.454545 
L 64.8 83.454545 
z
"/>
   </g>
   <g id="patch_5">
    <path clip-path="url(#p1591919548)" d="M 64.8 93.272727 
L 48.184615 93.272727 
L 48.184615 103.090909 
L 64.8 103.090909 
z
"/>
   </g>
   <g id="patch_6">
    <path clip-path="url(#p1591919548)" d="M 64.8 112.909091 
L 62.123077 112.909091 
L 62.123077 122.727273 
L 64.8 122.727273 
z
"/>
   </g>
   <g id="patch_7">
    <path clip-path="url(#p1591919548)" d="M 64.8 132.545455 
L 64.153846 132.545455 
L 64.153846 142.363636 
L 64.8 142.363636 
z
"/>
   </g>
   <g id="patch_8">
    <path clip-path="url(#p1591919548)" d="M 64.8 152.181818 
L 57.046154 152.181818 
L 57.046154 162 
L 64.8 162 
z
"/>
   </g>
   <g id="patch_9">
    <path clip-path="url(#p1591919548)" d="M 64.8 54 
L 71.431579 54 
L 71.431579 63.818182 
L 64.8 63.818182 
z
" style="fill:#ff0000;"/>
   </g>
   <g id="patch_10">
    <path clip-path="url(#p1591919548)" d="M 64.8 73.636364 
L 65.747368 73.636364 
L 65.747368 83.454545 
L 64.8 83.454545 
z
" style="fill:#ff0000;"/>
   </g>
   <g id="patch_11">
    <path clip-path="url(#p1591919548)" d="M 64.8 93.272727 
L 84.694737 93.272727 
L 84.694737 103.090909 
L 64.8 103.090909 
z
" style="fill:#ff0000;"/>
   </g>
   <g id="patch_12">
    <path clip-path="url(#p1591919548)" d="M 64.8 112.909091 
L 67.642105 112.909091 
L 67.642105 122.727273 
L 64.8 122.727273 
z
" style="fill:#ff0000;"/>
   </g>
   <g id="patch_13">
    <path clip-path="url(#p1591919548)" d="M 64.8 132.545455 
L 65.747368 132.545455 
L 65.747368 142.363636 
L 64.8 142.363636 
z
" style="fill:#ff0000;"/>
   </g>
   <g id="patch_14">
    <path clip-path="url(#p1591919548)" d="M 64.8 152.181818 
L 69.536842 152.181818 
L 69.536842 162 
L 64.8 162 
z
" style="fill:#ff0000;"/>
   </g>
   <g id="matplotlib.axis_1">
    <g id="xtick_1">
     <g id="line2d_1">
      <path clip-path="url(#p1591919548)" d="M 28.8 172.8 
L 28.8 43.2 
" style="fill:none;stroke:#e6e6e6;stroke-linecap:round;stroke-width:0.8;"/>
     </g>
     <g id="text_1">
      <!-- 100 -->
      <g style="fill:#999999;" transform="translate(23.795156 184.104062)scale(0.06 -0.06)">
       <defs>
        <path d="M 9.578125 49.515625 
L 9.578125 56.25 
Q 19.09375 57.171875 22.84375 59.34375 
Q 26.609375 61.53125 28.46875 69.625 
L 35.40625 69.625 
L 35.40625 0 
L 26.03125 0 
L 26.03125 49.515625 
z
" id="Helvetica-49"/>
        <path d="M 27.046875 69.921875 
Q 40.625 69.921875 46.6875 58.734375 
Q 51.375 50.09375 51.375 35.0625 
Q 51.375 20.796875 47.125 11.46875 
Q 40.96875 -1.90625 27 -1.90625 
Q 14.40625 -1.90625 8.25 9.03125 
Q 3.125 18.171875 3.125 33.546875 
Q 3.125 45.453125 6.203125 54 
Q 11.96875 69.921875 27.046875 69.921875 
z
M 26.953125 6.109375 
Q 33.796875 6.109375 37.84375 12.15625 
Q 41.890625 18.21875 41.890625 34.71875 
Q 41.890625 46.625 38.953125 54.3125 
Q 36.03125 62.015625 27.59375 62.015625 
Q 19.828125 62.015625 16.234375 54.703125 
Q 12.640625 47.40625 12.640625 33.203125 
Q 12.640625 22.515625 14.9375 16.015625 
Q 18.453125 6.109375 26.953125 6.109375 
z
" id="Helvetica-48"/>
       </defs>
       <use xlink:href="#Helvetica-49"/>
       <use x="55.615234" xlink:href="#Helvetica-48"/>
       <use x="111.230469" xlink:href="#Helvetica-48"/>
      </g>
     </g>
    </g>
    <g id="xtick_2">
     <g id="line2d_2">
      <path clip-path="url(#p1591919548)" d="M 46.8 172.8 
L 46.8 43.2 
" style="fill:none;stroke:#e6e6e6;stroke-linecap:round;stroke-width:0.8;"/>
     </g>
     <g id="text_2">
      <!-- 50 -->
      <g style="fill:#999999;" transform="translate(43.463437 184.104062)scale(0.06 -0.06)">
       <defs>
        <path d="M 12.359375 17.828125 
Q 13.234375 10.296875 19.34375 7.421875 
Q 22.46875 5.953125 26.5625 5.953125 
Q 34.375 5.953125 38.125 10.9375 
Q 41.890625 15.921875 41.890625 21.96875 
Q 41.890625 29.296875 37.421875 33.296875 
Q 32.953125 37.3125 26.703125 37.3125 
Q 22.171875 37.3125 18.921875 35.546875 
Q 15.671875 33.796875 13.375 30.671875 
L 5.765625 31.109375 
L 11.078125 68.75 
L 47.40625 68.75 
L 47.40625 60.25 
L 17.671875 60.25 
L 14.703125 40.828125 
Q 17.140625 42.671875 19.34375 43.609375 
Q 23.25 45.21875 28.375 45.21875 
Q 37.984375 45.21875 44.671875 39.015625 
Q 51.375 32.8125 51.375 23.296875 
Q 51.375 13.375 45.234375 5.796875 
Q 39.109375 -1.765625 25.6875 -1.765625 
Q 17.140625 -1.765625 10.5625 3.046875 
Q 4 7.859375 3.21875 17.828125 
z
" id="Helvetica-53"/>
       </defs>
       <use xlink:href="#Helvetica-53"/>
       <use x="55.615234" xlink:href="#Helvetica-48"/>
      </g>
     </g>
    </g>
    <g id="xtick_3">
     <g id="line2d_3">
      <path clip-path="url(#p1591919548)" d="M 64.8 172.8 
L 64.8 43.2 
" style="fill:none;stroke:#e6e6e6;stroke-linecap:round;stroke-width:0.8;"/>
     </g>
     <g id="text_3">
      <!-- 0 -->
      <g style="fill:#999999;" transform="translate(63.131719 184.104062)scale(0.06 -0.06)">
       <use xlink:href="#Helvetica-48"/>
      </g>
     </g>
    </g>
    <g id="xtick_4">
     <g id="line2d_4">
      <path clip-path="url(#p1591919548)" d="M 82.8 172.8 
L 82.8 43.2 
" style="fill:none;stroke:#e6e6e6;stroke-linecap:round;stroke-width:0.8;"/>
     </g>
     <g id="text_4">
      <!-- 50 -->
      <g style="fill:#999999;" transform="translate(79.463437 184.104062)scale(0.06 -0.06)">
       <use xlink:href="#Helvetica-53"/>
       <use x="55.615234" xlink:href="#Helvetica-48"/>
      </g>
     </g>
    </g>
    <g id="xtick_5">
     <g id="line2d_5">
      <path clip-path="url(#p1591919548)" d="M 100.8 172.8 
L 100.8 43.2 
" style="fill:none;stroke:#e6e6e6;stroke-linecap:round;stroke-width:0.8;"/>
     </g>
     <g id="text_5">
      <!-- 100 -->
      <g style="fill:#999999;" transform="translate(95.795156 184.104062)scale(0.06 -0.06)">
       <use xlink:href="#Helvetica-49"/>
       <use x="55.615234" xlink:href="#Helvetica-48"/>
       <use x="111.230469" xlink:href="#Helvetica-48"/>
      </g>
     </g>
    </g>
    <g id="text_6">
     <!-- % of users -->
     <g style="fill:#999999;" transform="translate(50.628281 193.65875)scale(0.06 -0.06)">
      <defs>
       <path d="M 68.171875 33.984375 
Q 75.203125 33.984375 80.171875 29 
Q 85.15625 24.03125 85.15625 17 
Q 85.15625 9.96875 80.171875 4.984375 
Q 75.203125 0 68.171875 0 
Q 61.078125 0 56.09375 4.984375 
Q 51.125 9.96875 51.125 17 
Q 51.125 24.03125 56.09375 29 
Q 61.078125 33.984375 68.171875 33.984375 
z
M 61.078125 69.625 
L 66.5 69.625 
L 27.390625 -1.859375 
L 21.96875 -1.859375 
z
M 20.21875 40.71875 
Q 24.421875 40.71875 27.375 43.671875 
Q 30.328125 46.625 30.328125 50.78125 
Q 30.328125 54.9375 27.375 57.890625 
Q 24.421875 60.84375 20.21875 60.84375 
Q 16.0625 60.84375 13.109375 57.90625 
Q 10.15625 54.984375 10.15625 50.78125 
Q 10.15625 46.625 13.109375 43.671875 
Q 16.0625 40.71875 20.21875 40.71875 
z
M 20.21875 67.828125 
Q 27.296875 67.828125 32.265625 62.8125 
Q 37.25 57.8125 37.25 50.78125 
Q 37.25 43.75 32.265625 38.765625 
Q 27.296875 33.796875 20.21875 33.796875 
Q 13.1875 33.796875 8.203125 38.765625 
Q 3.21875 43.75 3.21875 50.78125 
Q 3.21875 57.8125 8.203125 62.8125 
Q 13.1875 67.828125 20.21875 67.828125 
z
M 68.171875 6.9375 
Q 72.3125 6.9375 75.265625 9.890625 
Q 78.21875 12.84375 78.21875 17 
Q 78.21875 21.140625 75.265625 24.09375 
Q 72.3125 27.046875 68.171875 27.046875 
Q 63.96875 27.046875 61.015625 24.09375 
Q 58.0625 21.140625 58.0625 17 
Q 58.0625 12.84375 61.015625 9.890625 
Q 63.96875 6.9375 68.171875 6.9375 
z
" id="Helvetica-37"/>
       <path id="Helvetica-32"/>
       <path d="M 27.203125 5.671875 
Q 35.9375 5.671875 39.1875 12.28125 
Q 42.4375 18.890625 42.4375 27 
Q 42.4375 34.328125 40.09375 38.921875 
Q 36.375 46.140625 27.296875 46.140625 
Q 19.234375 46.140625 15.578125 39.984375 
Q 11.921875 33.84375 11.921875 25.140625 
Q 11.921875 16.796875 15.578125 11.234375 
Q 19.234375 5.671875 27.203125 5.671875 
z
M 27.546875 53.8125 
Q 37.640625 53.8125 44.625 47.0625 
Q 51.609375 40.328125 51.609375 27.25 
Q 51.609375 14.59375 45.453125 6.34375 
Q 39.3125 -1.90625 26.375 -1.90625 
Q 15.578125 -1.90625 9.21875 5.390625 
Q 2.875 12.703125 2.875 25 
Q 2.875 38.1875 9.5625 46 
Q 16.265625 53.8125 27.546875 53.8125 
z
M 27.25 53.5625 
z
" id="Helvetica-111"/>
       <path d="M 8.640625 60.25 
Q 8.84375 65.71875 10.546875 68.265625 
Q 13.625 72.75 22.40625 72.75 
Q 23.25 72.75 24.125 72.703125 
Q 25 72.65625 26.125 72.5625 
L 26.125 64.546875 
Q 24.75 64.65625 24.140625 64.671875 
Q 23.53125 64.703125 23 64.703125 
Q 19 64.703125 18.21875 62.625 
Q 17.4375 60.546875 17.4375 52.046875 
L 26.125 52.046875 
L 26.125 45.125 
L 17.328125 45.125 
L 17.328125 0 
L 8.640625 0 
L 8.640625 45.125 
L 1.375 45.125 
L 1.375 52.046875 
L 8.640625 52.046875 
L 8.640625 60.25 
z
" id="Helvetica-102"/>
       <path d="M 15.234375 52.296875 
L 15.234375 17.578125 
Q 15.234375 13.578125 16.5 11.03125 
Q 18.84375 6.34375 25.25 6.34375 
Q 34.421875 6.34375 37.75 14.546875 
Q 39.546875 18.953125 39.546875 26.609375 
L 39.546875 52.296875 
L 48.34375 52.296875 
L 48.34375 0 
L 40.046875 0 
L 40.140625 7.71875 
Q 38.421875 4.734375 35.890625 2.6875 
Q 30.859375 -1.421875 23.6875 -1.421875 
Q 12.5 -1.421875 8.453125 6.0625 
Q 6.25 10.0625 6.25 16.75 
L 6.25 52.296875 
z
M 27.296875 53.5625 
z
" id="Helvetica-117"/>
       <path d="M 11.671875 16.40625 
Q 12.0625 12.015625 13.875 9.671875 
Q 17.1875 5.421875 25.390625 5.421875 
Q 30.28125 5.421875 33.984375 7.546875 
Q 37.703125 9.671875 37.703125 14.109375 
Q 37.703125 17.484375 34.71875 19.234375 
Q 32.8125 20.3125 27.203125 21.734375 
L 20.21875 23.484375 
Q 13.53125 25.140625 10.359375 27.203125 
Q 4.6875 30.765625 4.6875 37.0625 
Q 4.6875 44.484375 10.03125 49.0625 
Q 15.375 53.65625 24.421875 53.65625 
Q 36.234375 53.65625 41.453125 46.734375 
Q 44.734375 42.328125 44.625 37.25 
L 36.328125 37.25 
Q 36.078125 40.234375 34.234375 42.671875 
Q 31.203125 46.140625 23.734375 46.140625 
Q 18.75 46.140625 16.1875 44.234375 
Q 13.625 42.328125 13.625 39.203125 
Q 13.625 35.796875 17 33.734375 
Q 18.953125 32.515625 22.75 31.59375 
L 28.5625 30.171875 
Q 38.03125 27.875 41.265625 25.734375 
Q 46.390625 22.359375 46.390625 15.140625 
Q 46.390625 8.15625 41.09375 3.078125 
Q 35.796875 -2 24.953125 -2 
Q 13.28125 -2 8.421875 3.296875 
Q 3.5625 8.59375 3.21875 16.40625 
z
M 24.65625 53.5625 
z
" id="Helvetica-115"/>
       <path d="M 28.21875 53.46875 
Q 33.796875 53.46875 39.015625 50.859375 
Q 44.234375 48.25 46.96875 44.09375 
Q 49.609375 40.140625 50.484375 34.859375 
Q 51.265625 31.25 51.265625 23.34375 
L 12.9375 23.34375 
Q 13.1875 15.375 16.703125 10.5625 
Q 20.21875 5.765625 27.59375 5.765625 
Q 34.46875 5.765625 38.578125 10.296875 
Q 40.921875 12.9375 41.890625 16.40625 
L 50.53125 16.40625 
Q 50.203125 13.53125 48.265625 9.984375 
Q 46.34375 6.453125 43.953125 4.203125 
Q 39.9375 0.296875 34.03125 -1.078125 
Q 30.859375 -1.859375 26.859375 -1.859375 
Q 17.09375 -1.859375 10.296875 5.25 
Q 3.515625 12.359375 3.515625 25.140625 
Q 3.515625 37.75 10.34375 45.609375 
Q 17.1875 53.46875 28.21875 53.46875 
z
M 42.234375 30.328125 
Q 41.703125 36.03125 39.75 39.453125 
Q 36.140625 45.796875 27.6875 45.796875 
Q 21.625 45.796875 17.515625 41.421875 
Q 13.421875 37.0625 13.1875 30.328125 
z
M 27.390625 53.5625 
z
" id="Helvetica-101"/>
       <path d="M 6.6875 52.296875 
L 15.046875 52.296875 
L 15.046875 43.265625 
Q 16.0625 45.90625 20.0625 49.6875 
Q 24.078125 53.46875 29.296875 53.46875 
Q 29.546875 53.46875 30.125 53.421875 
Q 30.71875 53.375 32.125 53.21875 
L 32.125 43.953125 
Q 31.34375 44.09375 30.6875 44.140625 
Q 30.03125 44.1875 29.25 44.1875 
Q 22.609375 44.1875 19.046875 39.90625 
Q 15.484375 35.640625 15.484375 30.078125 
L 15.484375 0 
L 6.6875 0 
z
" id="Helvetica-114"/>
      </defs>
      <use xlink:href="#Helvetica-37"/>
      <use x="88.916016" xlink:href="#Helvetica-32"/>
      <use x="116.699219" xlink:href="#Helvetica-111"/>
      <use x="172.314453" xlink:href="#Helvetica-102"/>
      <use x="200.097656" xlink:href="#Helvetica-32"/>
      <use x="227.880859" xlink:href="#Helvetica-117"/>
      <use x="283.496094" xlink:href="#Helvetica-115"/>
      <use x="333.496094" xlink:href="#Helvetica-101"/>
      <use x="389.111328" xlink:href="#Helvetica-114"/>
      <use x="422.412109" xlink:href="#Helvetica-115"/>
     </g>
    </g>
   </g>
   <g id="matplotlib.axis_2">
    <g id="ytick_1"/>
    <g id="ytick_2"/>
    <g id="ytick_3"/>
    <g id="ytick_4"/>
    <g id="ytick_5"/>
    <g id="ytick_6"/>
   </g>
   <g id="text_7">
    <!-- food -->
    <g style="fill:#404040;" transform="translate(102.6 60.43581)scale(0.06 -0.06)">
     <defs>
      <path d="M 12.015625 25.53125 
Q 12.015625 17.140625 15.578125 11.46875 
Q 19.140625 5.8125 27 5.8125 
Q 33.109375 5.8125 37.03125 11.0625 
Q 40.96875 16.3125 40.96875 26.125 
Q 40.96875 36.03125 36.90625 40.796875 
Q 32.859375 45.5625 26.90625 45.5625 
Q 20.265625 45.5625 16.140625 40.484375 
Q 12.015625 35.40625 12.015625 25.53125 
z
M 25.25 53.21875 
Q 31.25 53.21875 35.296875 50.6875 
Q 37.640625 49.21875 40.625 45.5625 
L 40.625 71.96875 
L 49.078125 71.96875 
L 49.078125 0 
L 41.15625 0 
L 41.15625 7.28125 
Q 38.09375 2.4375 33.890625 0.28125 
Q 29.6875 -1.859375 24.265625 -1.859375 
Q 15.53125 -1.859375 9.125 5.484375 
Q 2.734375 12.84375 2.734375 25.046875 
Q 2.734375 36.46875 8.5625 44.84375 
Q 14.40625 53.21875 25.25 53.21875 
z
" id="Helvetica-100"/>
     </defs>
     <use xlink:href="#Helvetica-102"/>
     <use x="27.783203" xlink:href="#Helvetica-111"/>
     <use x="83.398438" xlink:href="#Helvetica-111"/>
     <use x="139.013672" xlink:href="#Helvetica-100"/>
    </g>
   </g>
   <g id="text_8">
    <!-- information -->
    <g style="fill:#404040;" transform="translate(102.6 80.072173)scale(0.06 -0.06)">
     <defs>
      <path d="M 6.453125 52.046875 
L 15.375 52.046875 
L 15.375 0 
L 6.453125 0 
z
M 6.453125 71.734375 
L 15.375 71.734375 
L 15.375 61.765625 
L 6.453125 61.765625 
z
" id="Helvetica-105"/>
      <path d="M 6.453125 52.296875 
L 14.796875 52.296875 
L 14.796875 44.875 
Q 18.5 49.46875 22.65625 51.46875 
Q 26.8125 53.46875 31.890625 53.46875 
Q 43.015625 53.46875 46.921875 45.703125 
Q 49.078125 41.453125 49.078125 33.546875 
L 49.078125 0 
L 40.140625 0 
L 40.140625 32.953125 
Q 40.140625 37.75 38.71875 40.671875 
Q 36.375 45.5625 30.21875 45.5625 
Q 27.09375 45.5625 25.09375 44.921875 
Q 21.484375 43.84375 18.75 40.625 
Q 16.546875 38.03125 15.890625 35.265625 
Q 15.234375 32.515625 15.234375 27.390625 
L 15.234375 0 
L 6.453125 0 
z
M 27.09375 53.5625 
z
" id="Helvetica-110"/>
      <path d="M 6.453125 52.296875 
L 15.140625 52.296875 
L 15.140625 44.875 
Q 18.265625 48.734375 20.796875 50.484375 
Q 25.140625 53.46875 30.671875 53.46875 
Q 36.921875 53.46875 40.71875 50.390625 
Q 42.875 48.640625 44.625 45.21875 
Q 47.5625 49.421875 51.515625 51.4375 
Q 55.46875 53.46875 60.40625 53.46875 
Q 70.953125 53.46875 74.75 45.84375 
Q 76.8125 41.75 76.8125 34.8125 
L 76.8125 0 
L 67.671875 0 
L 67.671875 36.328125 
Q 67.671875 41.546875 65.0625 43.5 
Q 62.453125 45.453125 58.6875 45.453125 
Q 53.515625 45.453125 49.78125 41.984375 
Q 46.046875 38.53125 46.046875 30.421875 
L 46.046875 0 
L 37.109375 0 
L 37.109375 34.125 
Q 37.109375 39.453125 35.84375 41.890625 
Q 33.84375 45.5625 28.375 45.5625 
Q 23.390625 45.5625 19.3125 41.703125 
Q 15.234375 37.84375 15.234375 27.734375 
L 15.234375 0 
L 6.453125 0 
z
" id="Helvetica-109"/>
      <path d="M 13.1875 13.921875 
Q 13.1875 10.109375 15.96875 7.90625 
Q 18.75 5.71875 22.5625 5.71875 
Q 27.203125 5.71875 31.546875 7.859375 
Q 38.875 11.421875 38.875 19.53125 
L 38.875 26.609375 
Q 37.25 25.59375 34.703125 24.90625 
Q 32.171875 24.21875 29.734375 23.921875 
L 24.421875 23.25 
Q 19.625 22.609375 17.234375 21.234375 
Q 13.1875 18.953125 13.1875 13.921875 
z
M 34.46875 31.6875 
Q 37.5 32.078125 38.53125 34.234375 
Q 39.109375 35.40625 39.109375 37.59375 
Q 39.109375 42.09375 35.90625 44.109375 
Q 32.71875 46.140625 26.765625 46.140625 
Q 19.875 46.140625 17 42.4375 
Q 15.375 40.375 14.890625 36.328125 
L 6.6875 36.328125 
Q 6.9375 46 12.96875 49.78125 
Q 19 53.5625 26.953125 53.5625 
Q 36.1875 53.5625 41.9375 50.046875 
Q 47.65625 46.53125 47.65625 39.109375 
L 47.65625 8.984375 
Q 47.65625 7.625 48.21875 6.78125 
Q 48.78125 5.953125 50.59375 5.953125 
Q 51.171875 5.953125 51.90625 6.03125 
Q 52.640625 6.109375 53.46875 6.25 
L 53.46875 -0.25 
Q 51.421875 -0.828125 50.34375 -0.96875 
Q 49.265625 -1.125 47.40625 -1.125 
Q 42.875 -1.125 40.828125 2.09375 
Q 39.75 3.8125 39.3125 6.9375 
Q 36.625 3.421875 31.59375 0.828125 
Q 26.5625 -1.765625 20.515625 -1.765625 
Q 13.234375 -1.765625 8.609375 2.65625 
Q 4 7.078125 4 13.71875 
Q 4 21 8.546875 25 
Q 13.09375 29 20.453125 29.9375 
z
M 27.203125 53.5625 
z
" id="Helvetica-97"/>
      <path d="M 8.203125 66.890625 
L 17.09375 66.890625 
L 17.09375 52.296875 
L 25.4375 52.296875 
L 25.4375 45.125 
L 17.09375 45.125 
L 17.09375 10.984375 
Q 17.09375 8.25 18.953125 7.328125 
Q 19.96875 6.78125 22.359375 6.78125 
Q 23 6.78125 23.734375 6.8125 
Q 24.46875 6.84375 25.4375 6.9375 
L 25.4375 0 
Q 23.921875 -0.4375 22.28125 -0.625 
Q 20.65625 -0.828125 18.75 -0.828125 
Q 12.59375 -0.828125 10.390625 2.3125 
Q 8.203125 5.46875 8.203125 10.5 
L 8.203125 45.125 
L 1.125 45.125 
L 1.125 52.296875 
L 8.203125 52.296875 
z
" id="Helvetica-116"/>
     </defs>
     <use xlink:href="#Helvetica-105"/>
     <use x="22.216797" xlink:href="#Helvetica-110"/>
     <use x="77.832031" xlink:href="#Helvetica-102"/>
     <use x="105.615234" xlink:href="#Helvetica-111"/>
     <use x="161.230469" xlink:href="#Helvetica-114"/>
     <use x="194.53125" xlink:href="#Helvetica-109"/>
     <use x="277.832031" xlink:href="#Helvetica-97"/>
     <use x="333.447266" xlink:href="#Helvetica-116"/>
     <use x="361.230469" xlink:href="#Helvetica-105"/>
     <use x="383.447266" xlink:href="#Helvetica-111"/>
     <use x="439.0625" xlink:href="#Helvetica-110"/>
    </g>
   </g>
   <g id="text_9">
    <!-- motivation -->
    <g style="fill:#404040;" transform="translate(102.6 99.708537)scale(0.06 -0.06)">
     <defs>
      <path d="M 10.75 52.296875 
L 24.703125 9.71875 
L 39.3125 52.296875 
L 48.921875 52.296875 
L 29.203125 0 
L 19.828125 0 
L 0.53125 52.296875 
z
" id="Helvetica-118"/>
     </defs>
     <use xlink:href="#Helvetica-109"/>
     <use x="83.300781" xlink:href="#Helvetica-111"/>
     <use x="138.916016" xlink:href="#Helvetica-116"/>
     <use x="166.699219" xlink:href="#Helvetica-105"/>
     <use x="188.916016" xlink:href="#Helvetica-118"/>
     <use x="238.916016" xlink:href="#Helvetica-97"/>
     <use x="294.53125" xlink:href="#Helvetica-116"/>
     <use x="322.314453" xlink:href="#Helvetica-105"/>
     <use x="344.53125" xlink:href="#Helvetica-111"/>
     <use x="400.146484" xlink:href="#Helvetica-110"/>
    </g>
   </g>
   <g id="text_10">
    <!-- nan -->
    <g style="fill:#404040;" transform="translate(102.6 119.344901)scale(0.06 -0.06)">
     <use xlink:href="#Helvetica-110"/>
     <use x="55.615234" xlink:href="#Helvetica-97"/>
     <use x="111.230469" xlink:href="#Helvetica-110"/>
    </g>
   </g>
   <g id="text_11">
    <!-- other -->
    <g style="fill:#404040;" transform="translate(102.6 138.981264)scale(0.06 -0.06)">
     <defs>
      <path d="M 6.453125 71.96875 
L 15.234375 71.96875 
L 15.234375 45.21875 
Q 18.359375 49.171875 20.84375 50.78125 
Q 25.09375 53.5625 31.453125 53.5625 
Q 42.828125 53.5625 46.875 45.609375 
Q 49.078125 41.265625 49.078125 33.546875 
L 49.078125 0 
L 40.046875 0 
L 40.046875 32.953125 
Q 40.046875 38.71875 38.578125 41.40625 
Q 36.1875 45.703125 29.59375 45.703125 
Q 24.125 45.703125 19.671875 41.9375 
Q 15.234375 38.1875 15.234375 27.734375 
L 15.234375 0 
L 6.453125 0 
z
" id="Helvetica-104"/>
     </defs>
     <use xlink:href="#Helvetica-111"/>
     <use x="55.615234" xlink:href="#Helvetica-116"/>
     <use x="83.398438" xlink:href="#Helvetica-104"/>
     <use x="139.013672" xlink:href="#Helvetica-101"/>
     <use x="194.628906" xlink:href="#Helvetica-114"/>
    </g>
   </g>
   <g id="text_12">
    <!-- time -->
    <g style="fill:#404040;" transform="translate(102.6 158.617628)scale(0.06 -0.06)">
     <use xlink:href="#Helvetica-116"/>
     <use x="27.783203" xlink:href="#Helvetica-105"/>
     <use x="50" xlink:href="#Helvetica-109"/>
     <use x="133.300781" xlink:href="#Helvetica-101"/>
    </g>
   </g>
   <g id="text_13">
    <!-- % of responses to -->
    <g style="fill:#404040;" transform="translate(28.8 13.2)scale(0.08 -0.08)">
     <defs>
      <path d="M 20.453125 44.53125 
Q 23.6875 44.53125 25.953125 46.796875 
Q 28.21875 49.078125 28.21875 52.296875 
Q 28.21875 55.515625 25.953125 57.78125 
Q 23.6875 60.0625 20.453125 60.0625 
Q 17.234375 60.0625 14.96875 57.78125 
Q 12.703125 55.515625 12.703125 52.296875 
Q 12.703125 49.078125 14.96875 46.796875 
Q 17.234375 44.53125 20.453125 44.53125 
z
M 38.625 52.296875 
Q 38.625 44.78125 33.328125 39.453125 
Q 28.03125 34.125 20.453125 34.125 
Q 12.9375 34.125 7.609375 39.453125 
Q 2.296875 44.78125 2.296875 52.296875 
Q 2.296875 59.8125 7.609375 65.125 
Q 12.9375 70.453125 20.453125 70.453125 
Q 27.984375 70.453125 33.296875 65.125 
Q 38.625 59.8125 38.625 52.296875 
z
M 75.6875 16.75 
Q 75.6875 19.96875 73.40625 22.234375 
Q 71.140625 24.515625 67.921875 24.515625 
Q 64.703125 24.515625 62.421875 22.234375 
Q 60.15625 19.96875 60.15625 16.75 
Q 60.15625 13.53125 62.421875 11.25 
Q 64.703125 8.984375 67.921875 8.984375 
Q 71.140625 8.984375 73.40625 11.25 
Q 75.6875 13.53125 75.6875 16.75 
z
M 86.078125 16.75 
Q 86.078125 9.234375 80.75 3.90625 
Q 75.4375 -1.421875 67.921875 -1.421875 
Q 60.40625 -1.421875 55.078125 3.90625 
Q 49.75 9.234375 49.75 16.75 
Q 49.75 24.3125 55.078125 29.609375 
Q 60.40625 34.90625 67.921875 34.90625 
Q 75.4375 34.90625 80.75 29.578125 
Q 86.078125 24.265625 86.078125 16.75 
z
M 60.15625 70.796875 
L 67.578125 70.796875 
L 28.125 -1.859375 
L 20.5625 -1.859375 
z
" id="Helvetica-Bold-37"/>
      <path id="Helvetica-Bold-32"/>
      <path d="M 30.375 9.8125 
Q 36.46875 9.8125 39.734375 14.15625 
Q 43.015625 18.5 43.015625 26.515625 
Q 43.015625 34.515625 39.734375 38.84375 
Q 36.46875 43.171875 30.375 43.171875 
Q 24.265625 43.171875 20.96875 38.84375 
Q 17.671875 34.515625 17.671875 26.515625 
Q 17.671875 18.5 20.96875 14.15625 
Q 24.265625 9.8125 30.375 9.8125 
z
M 57.625 26.515625 
Q 57.625 14.796875 50.875 6.46875 
Q 44.140625 -1.859375 30.421875 -1.859375 
Q 16.703125 -1.859375 9.953125 6.46875 
Q 3.21875 14.796875 3.21875 26.515625 
Q 3.21875 38.03125 9.953125 46.484375 
Q 16.703125 54.9375 30.421875 54.9375 
Q 44.140625 54.9375 50.875 46.484375 
Q 57.625 38.03125 57.625 26.515625 
z
M 30.421875 54.640625 
z
" id="Helvetica-Bold-111"/>
      <path d="M 26.125 72.703125 
Q 27.4375 72.703125 28.515625 72.625 
Q 29.59375 72.5625 31.453125 72.40625 
L 31.453125 61.078125 
Q 30.28125 61.234375 27.515625 61.296875 
Q 24.75 61.375 23.703125 60.078125 
Q 22.65625 58.796875 22.65625 57.234375 
Q 22.65625 55.671875 22.65625 52.734375 
L 31.78125 52.734375 
L 31.78125 42.921875 
L 22.65625 42.921875 
L 22.65625 0 
L 8.796875 0 
L 8.796875 42.921875 
L 1.03125 42.921875 
L 1.03125 52.734375 
L 8.640625 52.734375 
L 8.640625 56.15625 
Q 8.640625 64.703125 11.53125 67.921875 
Q 14.546875 72.703125 26.125 72.703125 
z
" id="Helvetica-Bold-102"/>
      <path d="M 35.40625 54.5 
Q 35.796875 54.5 36.0625 54.46875 
Q 36.328125 54.4375 37.25 54.390625 
L 37.25 40.140625 
Q 35.9375 40.28125 34.90625 40.328125 
Q 33.890625 40.375 33.25 40.375 
Q 24.859375 40.375 21.96875 34.90625 
Q 20.359375 31.84375 20.359375 25.4375 
L 20.359375 0 
L 6.34375 0 
L 6.34375 53.21875 
L 19.625 53.21875 
L 19.625 43.953125 
Q 22.859375 49.265625 25.25 51.21875 
Q 29.15625 54.5 35.40625 54.5 
z
" id="Helvetica-Bold-114"/>
      <path d="M 27.484375 43.171875 
Q 22.65625 43.171875 19.984375 40.140625 
Q 17.328125 37.109375 16.65625 31.9375 
L 38.28125 31.9375 
Q 37.9375 37.453125 34.9375 40.3125 
Q 31.9375 43.171875 27.484375 43.171875 
z
M 27.484375 54.640625 
Q 34.125 54.640625 39.453125 52.140625 
Q 44.78125 49.65625 48.25 44.28125 
Q 51.375 39.546875 52.296875 33.296875 
Q 52.828125 29.640625 52.734375 22.75 
L 16.3125 22.75 
Q 16.609375 14.75 21.34375 11.53125 
Q 24.21875 9.515625 28.265625 9.515625 
Q 32.5625 9.515625 35.25 11.96875 
Q 36.71875 13.28125 37.84375 15.625 
L 52.046875 15.625 
Q 51.515625 10.890625 47.125 6 
Q 40.28125 -1.765625 27.984375 -1.765625 
Q 17.828125 -1.765625 10.0625 4.78125 
Q 2.296875 11.328125 2.296875 26.078125 
Q 2.296875 39.890625 9.296875 47.265625 
Q 16.3125 54.640625 27.484375 54.640625 
z
M 28.46875 54.640625 
z
" id="Helvetica-Bold-101"/>
      <path d="M 17.328125 17 
Q 17.78125 13.28125 19.234375 11.71875 
Q 21.828125 8.9375 28.8125 8.9375 
Q 32.90625 8.9375 35.328125 10.15625 
Q 37.75 11.375 37.75 13.8125 
Q 37.75 16.15625 35.796875 17.390625 
Q 33.84375 18.609375 21.296875 21.578125 
Q 12.25 23.828125 8.546875 27.203125 
Q 4.828125 30.515625 4.828125 36.765625 
Q 4.828125 44.140625 10.609375 49.4375 
Q 16.40625 54.734375 26.90625 54.734375 
Q 36.859375 54.734375 43.140625 50.75 
Q 49.421875 46.78125 50.34375 37.015625 
L 36.421875 37.015625 
Q 36.140625 39.703125 34.90625 41.265625 
Q 32.625 44.09375 27.09375 44.09375 
Q 22.5625 44.09375 20.625 42.671875 
Q 18.703125 41.265625 18.703125 39.359375 
Q 18.703125 36.96875 20.75 35.890625 
Q 22.796875 34.765625 35.25 32.03125 
Q 43.5625 30.078125 47.703125 26.125 
Q 51.8125 22.125 51.8125 16.109375 
Q 51.8125 8.203125 45.921875 3.1875 
Q 40.046875 -1.8125 27.734375 -1.8125 
Q 15.1875 -1.8125 9.203125 3.484375 
Q 3.21875 8.796875 3.21875 17 
z
M 27.984375 54.640625 
z
" id="Helvetica-Bold-115"/>
      <path d="M 43.171875 26.609375 
Q 43.171875 32.765625 40.359375 37.5 
Q 37.546875 42.234375 31.25 42.234375 
Q 23.6875 42.234375 20.84375 35.0625 
Q 19.390625 31.25 19.390625 25.390625 
Q 19.390625 16.109375 24.3125 12.359375 
Q 27.25 10.15625 31.25 10.15625 
Q 37.0625 10.15625 40.109375 14.640625 
Q 43.171875 19.140625 43.171875 26.609375 
z
M 35.25 54.390625 
Q 44.578125 54.390625 51.046875 47.5 
Q 57.515625 40.625 57.515625 27.296875 
Q 57.515625 13.234375 51.1875 5.859375 
Q 44.875 -1.515625 34.90625 -1.515625 
Q 28.5625 -1.515625 24.359375 1.65625 
Q 22.078125 3.421875 19.875 6.78125 
L 19.875 -20.953125 
L 6.109375 -20.953125 
L 6.109375 53.21875 
L 19.4375 53.21875 
L 19.4375 45.359375 
Q 21.6875 48.828125 24.21875 50.828125 
Q 28.859375 54.390625 35.25 54.390625 
z
" id="Helvetica-Bold-112"/>
      <path d="M 35.984375 54.5 
Q 44.234375 54.5 49.484375 50.171875 
Q 54.734375 45.84375 54.734375 35.84375 
L 54.734375 0 
L 40.484375 0 
L 40.484375 32.375 
Q 40.484375 36.578125 39.359375 38.8125 
Q 37.3125 42.921875 31.546875 42.921875 
Q 24.46875 42.921875 21.828125 36.921875 
Q 20.453125 33.734375 20.453125 28.8125 
L 20.453125 0 
L 6.59375 0 
L 6.59375 53.125 
L 20.015625 53.125 
L 20.015625 45.359375 
Q 22.703125 49.46875 25.09375 51.265625 
Q 29.390625 54.5 35.984375 54.5 
z
M 30.859375 54.640625 
z
" id="Helvetica-Bold-110"/>
      <path d="M 1.03125 42.828125 
L 1.03125 52.734375 
L 8.453125 52.734375 
L 8.453125 67.578125 
L 22.21875 67.578125 
L 22.21875 52.734375 
L 30.859375 52.734375 
L 30.859375 42.828125 
L 22.21875 42.828125 
L 22.21875 14.703125 
Q 22.21875 11.421875 23.046875 10.609375 
Q 23.875 9.8125 28.125 9.8125 
Q 28.765625 9.8125 29.46875 9.828125 
Q 30.171875 9.859375 30.859375 9.90625 
L 30.859375 -0.484375 
L 24.265625 -0.734375 
Q 14.40625 -1.078125 10.796875 2.6875 
Q 8.453125 5.078125 8.453125 10.0625 
L 8.453125 42.828125 
z
" id="Helvetica-Bold-116"/>
     </defs>
     <use xlink:href="#Helvetica-Bold-37"/>
     <use x="88.916016" xlink:href="#Helvetica-Bold-32"/>
     <use x="116.699219" xlink:href="#Helvetica-Bold-111"/>
     <use x="177.783203" xlink:href="#Helvetica-Bold-102"/>
     <use x="211.083984" xlink:href="#Helvetica-Bold-32"/>
     <use x="238.867188" xlink:href="#Helvetica-Bold-114"/>
     <use x="277.783203" xlink:href="#Helvetica-Bold-101"/>
     <use x="333.398438" xlink:href="#Helvetica-Bold-115"/>
     <use x="389.013672" xlink:href="#Helvetica-Bold-112"/>
     <use x="450.097656" xlink:href="#Helvetica-Bold-111"/>
     <use x="511.181641" xlink:href="#Helvetica-Bold-110"/>
     <use x="572.265625" xlink:href="#Helvetica-Bold-115"/>
     <use x="627.880859" xlink:href="#Helvetica-Bold-101"/>
     <use x="683.496094" xlink:href="#Helvetica-Bold-115"/>
     <use x="739.111328" xlink:href="#Helvetica-Bold-32"/>
     <use x="766.894531" xlink:href="#Helvetica-Bold-116"/>
     <use x="800.195312" xlink:href="#Helvetica-Bold-111"/>
    </g>
   </g>
   <g id="text_14">
    <!-- 'challenge' question -->
    <g style="fill:#404040;" transform="translate(28.8 23.2)scale(0.08 -0.08)">
     <defs>
      <path d="M 18.171875 71.96875 
L 15.71875 42.234375 
L 7.28125 42.234375 
L 4.828125 71.96875 
z
" id="Helvetica-Bold-39"/>
      <path d="M 38.28125 34.125 
Q 37.890625 37.109375 36.28125 39.5 
Q 33.9375 42.71875 29 42.71875 
Q 21.96875 42.71875 19.390625 35.75 
Q 18.015625 32.03125 18.015625 25.875 
Q 18.015625 20.015625 19.390625 16.453125 
Q 21.875 9.8125 28.765625 9.8125 
Q 33.640625 9.8125 35.6875 12.453125 
Q 37.75 15.09375 38.1875 19.28125 
L 52.390625 19.28125 
Q 51.90625 12.9375 47.796875 7.28125 
Q 41.265625 -1.859375 28.421875 -1.859375 
Q 15.578125 -1.859375 9.515625 5.75 
Q 3.46875 13.375 3.46875 25.53125 
Q 3.46875 39.265625 10.15625 46.875 
Q 16.84375 54.5 28.609375 54.5 
Q 38.625 54.5 45 50 
Q 51.375 45.515625 52.546875 34.125 
z
M 28.859375 54.640625 
z
" id="Helvetica-Bold-99"/>
      <path d="M 35.84375 54.59375 
Q 40.765625 54.59375 44.796875 52.875 
Q 48.828125 51.171875 51.421875 47.65625 
Q 53.609375 44.671875 54.09375 41.515625 
Q 54.59375 38.375 54.59375 31.25 
L 54.59375 0 
L 40.375 0 
L 40.375 32.375 
Q 40.375 36.671875 38.921875 39.3125 
Q 37.015625 43.015625 31.6875 43.015625 
Q 26.171875 43.015625 23.3125 39.328125 
Q 20.453125 35.640625 20.453125 28.8125 
L 20.453125 0 
L 6.59375 0 
L 6.59375 71.734375 
L 20.453125 71.734375 
L 20.453125 46.296875 
Q 23.484375 50.921875 27.46875 52.75 
Q 31.453125 54.59375 35.84375 54.59375 
z
" id="Helvetica-Bold-104"/>
      <path d="M 35.84375 25.875 
Q 34.515625 25.046875 33.171875 24.53125 
Q 31.84375 24.03125 29.5 23.578125 
L 26.375 23 
Q 21.96875 22.21875 20.0625 21.09375 
Q 16.84375 19.1875 16.84375 15.1875 
Q 16.84375 11.625 18.8125 10.03125 
Q 20.796875 8.453125 23.640625 8.453125 
Q 28.125 8.453125 31.90625 11.078125 
Q 35.6875 13.71875 35.84375 20.703125 
z
M 27.390625 32.375 
Q 31.25 32.859375 32.90625 33.59375 
Q 35.890625 34.859375 35.890625 37.546875 
Q 35.890625 40.828125 33.609375 42.0625 
Q 31.34375 43.3125 26.953125 43.3125 
Q 22.015625 43.3125 19.96875 40.875 
Q 18.5 39.0625 18.015625 35.984375 
L 4.59375 35.984375 
Q 5.03125 42.96875 8.5 47.46875 
Q 14.015625 54.5 27.4375 54.5 
Q 36.1875 54.5 42.96875 51.03125 
Q 49.75 47.5625 49.75 37.9375 
L 49.75 13.53125 
Q 49.75 10.984375 49.859375 7.375 
Q 50 4.640625 50.6875 3.65625 
Q 51.375 2.6875 52.734375 2.046875 
L 52.734375 0 
L 37.59375 0 
Q 36.96875 1.609375 36.71875 3.015625 
Q 36.46875 4.4375 36.328125 6.25 
Q 33.453125 3.125 29.6875 0.921875 
Q 25.203125 -1.65625 19.53125 -1.65625 
Q 12.3125 -1.65625 7.59375 2.46875 
Q 2.875 6.59375 2.875 14.15625 
Q 2.875 23.96875 10.453125 28.375 
Q 14.59375 30.765625 22.65625 31.78125 
z
M 28.125 54.640625 
z
" id="Helvetica-Bold-97"/>
      <path d="M 20.703125 0 
L 6.78125 0 
L 6.78125 71.96875 
L 20.703125 71.96875 
z
" id="Helvetica-Bold-108"/>
      <path d="M 29.34375 11.421875 
Q 34.234375 11.421875 37.59375 15.109375 
Q 40.96875 18.796875 40.96875 26.859375 
Q 40.96875 34.421875 37.765625 38.375 
Q 34.578125 42.328125 29.203125 42.328125 
Q 21.875 42.328125 19.09375 35.453125 
Q 17.625 31.78125 17.625 26.421875 
Q 17.625 21.78125 19.1875 18.171875 
Q 22.015625 11.421875 29.34375 11.421875 
z
M 25.875 54.5 
Q 29.890625 54.5 32.859375 53.265625 
Q 37.9375 51.171875 41.0625 45.5625 
L 41.0625 53.21875 
L 54.59375 53.21875 
L 54.59375 2.734375 
Q 54.59375 -7.5625 51.125 -12.796875 
Q 45.171875 -21.78125 28.265625 -21.78125 
Q 18.0625 -21.78125 11.609375 -17.765625 
Q 5.171875 -13.765625 4.5 -5.8125 
L 19.625 -5.8125 
Q 20.21875 -8.25 21.53125 -9.328125 
Q 23.78125 -11.234375 29.109375 -11.234375 
Q 36.625 -11.234375 39.15625 -6.203125 
Q 40.828125 -2.984375 40.828125 4.640625 
L 40.828125 8.0625 
Q 38.8125 4.640625 36.53125 2.9375 
Q 32.375 -0.25 25.734375 -0.25 
Q 15.484375 -0.25 9.34375 6.953125 
Q 3.21875 14.15625 3.21875 26.46875 
Q 3.21875 38.328125 9.125 46.40625 
Q 15.046875 54.5 25.875 54.5 
z
M 30.328125 54.640625 
z
" id="Helvetica-Bold-103"/>
      <path d="M 29.046875 10.25 
Q 36.234375 10.25 39.265625 16.40625 
Q 41.21875 20.453125 41.21875 26.65625 
Q 41.21875 31.546875 39.546875 35.40625 
Q 36.578125 42.328125 29.109375 42.328125 
Q 23.828125 42.328125 20.625 38.28125 
Q 17.4375 34.234375 17.4375 25.984375 
Q 17.4375 20.453125 18.890625 16.9375 
Q 21.625 10.25 29.046875 10.25 
z
M 25.53125 54.59375 
Q 32.171875 54.59375 36.28125 51.3125 
Q 38.671875 49.46875 41.15625 45.21875 
L 41.15625 53.125 
L 54.59375 53.125 
L 54.59375 -21.09375 
L 40.828125 -21.09375 
L 40.828125 6.59375 
Q 39.265625 3.375 35.46875 0.859375 
Q 31.6875 -1.65625 25.140625 -1.65625 
Q 15.921875 -1.65625 9.421875 5.71875 
Q 2.9375 13.09375 2.9375 25.390625 
Q 2.9375 38.671875 9.453125 46.625 
Q 15.96875 54.59375 25.53125 54.59375 
z
" id="Helvetica-Bold-113"/>
      <path d="M 20.359375 53.21875 
L 20.359375 21.140625 
Q 20.359375 16.609375 21.4375 14.3125 
Q 23.34375 10.25 28.90625 10.25 
Q 36.03125 10.25 38.671875 16.015625 
Q 40.046875 19.140625 40.046875 24.265625 
L 40.046875 53.21875 
L 54.15625 53.21875 
L 54.15625 0 
L 40.625 0 
L 40.625 7.515625 
Q 40.4375 7.28125 39.65625 6.046875 
Q 38.875 4.828125 37.796875 3.90625 
Q 34.515625 0.984375 31.46875 -0.09375 
Q 28.421875 -1.171875 24.3125 -1.171875 
Q 12.5 -1.171875 8.40625 7.328125 
Q 6.109375 12.015625 6.109375 21.140625 
L 6.109375 53.21875 
z
M 30.125 54.640625 
z
" id="Helvetica-Bold-117"/>
      <path d="M 20.796875 59.578125 
L 6.6875 59.578125 
L 6.6875 72.40625 
L 20.796875 72.40625 
z
M 6.6875 53.21875 
L 20.796875 53.21875 
L 20.796875 0 
L 6.6875 0 
z
" id="Helvetica-Bold-105"/>
     </defs>
     <use xlink:href="#Helvetica-Bold-39"/>
     <use x="23.779297" xlink:href="#Helvetica-Bold-99"/>
     <use x="79.394531" xlink:href="#Helvetica-Bold-104"/>
     <use x="140.478516" xlink:href="#Helvetica-Bold-97"/>
     <use x="196.09375" xlink:href="#Helvetica-Bold-108"/>
     <use x="223.876953" xlink:href="#Helvetica-Bold-108"/>
     <use x="251.660156" xlink:href="#Helvetica-Bold-101"/>
     <use x="307.275391" xlink:href="#Helvetica-Bold-110"/>
     <use x="368.359375" xlink:href="#Helvetica-Bold-103"/>
     <use x="429.443359" xlink:href="#Helvetica-Bold-101"/>
     <use x="485.058594" xlink:href="#Helvetica-Bold-39"/>
     <use x="508.837891" xlink:href="#Helvetica-Bold-32"/>
     <use x="536.621094" xlink:href="#Helvetica-Bold-113"/>
     <use x="597.705078" xlink:href="#Helvetica-Bold-117"/>
     <use x="658.789062" xlink:href="#Helvetica-Bold-101"/>
     <use x="714.404297" xlink:href="#Helvetica-Bold-115"/>
     <use x="770.019531" xlink:href="#Helvetica-Bold-116"/>
     <use x="803.320312" xlink:href="#Helvetica-Bold-105"/>
     <use x="831.103516" xlink:href="#Helvetica-Bold-111"/>
     <use x="892.1875" xlink:href="#Helvetica-Bold-110"/>
    </g>
   </g>
   <g id="text_15">
    <!-- Completed -->
    <g transform="translate(28.8 172.8)scale(0.06 -0.06)">
     <defs>
      <path d="M 4.5 35.40625 
Q 4.5 54.25 14.59375 64.453125 
Q 23.390625 73.34375 36.96875 73.34375 
Q 55.125 73.34375 63.53125 61.421875 
Q 68.171875 54.734375 68.5 48 
L 53.46875 48 
Q 52 53.171875 49.703125 55.8125 
Q 45.609375 60.5 37.546875 60.5 
Q 29.34375 60.5 24.609375 53.875 
Q 19.875 47.265625 19.875 35.15625 
Q 19.875 23.046875 24.875 17.015625 
Q 29.890625 10.984375 37.59375 10.984375 
Q 45.515625 10.984375 49.65625 16.15625 
Q 51.953125 18.953125 53.46875 24.515625 
L 68.359375 24.515625 
Q 66.40625 12.75 58.375 5.375 
Q 50.34375 -2 37.796875 -2 
Q 22.265625 -2 13.375 7.953125 
Q 4.5 17.96875 4.5 35.40625 
z
M 36.53125 74.171875 
z
" id="Helvetica-Bold-67"/>
      <path d="M 65.96875 54.390625 
Q 69.484375 54.390625 72.890625 53.015625 
Q 76.3125 51.65625 79.109375 48.25 
Q 81.34375 45.453125 82.125 41.40625 
Q 82.625 38.71875 82.625 33.546875 
L 82.515625 0 
L 68.265625 0 
L 68.265625 33.890625 
Q 68.265625 36.921875 67.28125 38.875 
Q 65.4375 42.578125 60.453125 42.578125 
Q 54.6875 42.578125 52.484375 37.796875 
Q 51.375 35.25 51.375 31.6875 
L 51.375 0 
L 37.359375 0 
L 37.359375 31.6875 
Q 37.359375 36.421875 36.375 38.578125 
Q 34.625 42.4375 29.5 42.4375 
Q 23.53125 42.4375 21.484375 38.578125 
Q 20.359375 36.375 20.359375 32.03125 
L 20.359375 0 
L 6.25 0 
L 6.25 53.125 
L 19.78125 53.125 
L 19.78125 45.359375 
Q 22.359375 49.515625 24.65625 51.265625 
Q 28.71875 54.390625 35.15625 54.390625 
Q 41.265625 54.390625 45.015625 51.703125 
Q 48.046875 49.21875 49.609375 45.3125 
Q 52.34375 50 56.390625 52.203125 
Q 60.6875 54.390625 65.96875 54.390625 
z
" id="Helvetica-Bold-109"/>
      <path d="M 26.125 54.5 
Q 30.953125 54.5 34.71875 52.375 
Q 38.484375 50.25 40.828125 46.484375 
L 40.828125 71.875 
L 54.9375 71.875 
L 54.9375 0 
L 41.40625 0 
L 41.40625 7.375 
Q 38.421875 2.640625 34.609375 0.484375 
Q 30.8125 -1.65625 25.140625 -1.65625 
Q 15.828125 -1.65625 9.453125 5.875 
Q 3.078125 13.421875 3.078125 25.25 
Q 3.078125 38.875 9.34375 46.6875 
Q 15.625 54.5 26.125 54.5 
z
M 29.15625 10.0625 
Q 35.0625 10.0625 38.140625 14.453125 
Q 41.21875 18.84375 41.21875 25.828125 
Q 41.21875 35.59375 36.28125 39.796875 
Q 33.25 42.328125 29.25 42.328125 
Q 23.140625 42.328125 20.28125 37.71875 
Q 17.4375 33.109375 17.4375 26.265625 
Q 17.4375 18.890625 20.34375 14.46875 
Q 23.25 10.0625 29.15625 10.0625 
z
" id="Helvetica-Bold-100"/>
     </defs>
     <use xlink:href="#Helvetica-Bold-67"/>
     <use x="72.216797" xlink:href="#Helvetica-Bold-111"/>
     <use x="133.300781" xlink:href="#Helvetica-Bold-109"/>
     <use x="222.216797" xlink:href="#Helvetica-Bold-112"/>
     <use x="283.300781" xlink:href="#Helvetica-Bold-108"/>
     <use x="311.083984" xlink:href="#Helvetica-Bold-101"/>
     <use x="366.699219" xlink:href="#Helvetica-Bold-116"/>
     <use x="400" xlink:href="#Helvetica-Bold-101"/>
     <use x="455.615234" xlink:href="#Helvetica-Bold-100"/>
    </g>
   </g>
   <g id="text_16">
    <!-- Churned -->
    <g style="fill:#ff0000;" transform="translate(76.13625 172.8)scale(0.06 -0.06)">
     <use xlink:href="#Helvetica-Bold-67"/>
     <use x="72.216797" xlink:href="#Helvetica-Bold-104"/>
     <use x="133.300781" xlink:href="#Helvetica-Bold-117"/>
     <use x="194.384766" xlink:href="#Helvetica-Bold-114"/>
     <use x="233.300781" xlink:href="#Helvetica-Bold-110"/>
     <use x="294.384766" xlink:href="#Helvetica-Bold-101"/>
     <use x="350" xlink:href="#Helvetica-Bold-100"/>
    </g>
   </g>
  </g>
 </g>
 <defs>
  <clipPath id="p1591919548">
   <rect height="129.6" width="72" x="28.8" y="43.2"/>
  </clipPath>
 </defs>
</svg>
