<?xml version="1.0" encoding="utf-8" standalone="no"?>
<!DOCTYPE svg PUBLIC "-//W3C//DTD SVG 1.1//EN"
  "http://www.w3.org/Graphics/SVG/1.1/DTD/svg11.dtd">
<!-- Created with matplotlib (https://matplotlib.org/) -->
<svg height="144pt" version="1.1" viewBox="0 0 216 144" width="216pt" xmlns="http://www.w3.org/2000/svg" xmlns:xlink="http://www.w3.org/1999/xlink">
 <metadata>
  <rdf:RDF xmlns:cc="http://creativecommons.org/ns#" xmlns:dc="http://purl.org/dc/elements/1.1/" xmlns:rdf="http://www.w3.org/1999/02/22-rdf-syntax-ns#">
   <cc:Work>
    <dc:type rdf:resource="http://purl.org/dc/dcmitype/StillImage"/>
    <dc:date>2021-02-01T09:17:13.416197</dc:date>
    <dc:format>image/svg+xml</dc:format>
    <dc:creator>
     <cc:Agent>
      <dc:title>Matplotlib v3.3.3, https://matplotlib.org/</dc:title>
     </cc:Agent>
    </dc:creator>
   </cc:Work>
  </rdf:RDF>
 </metadata>
 <defs>
  <style type="text/css">*{stroke-linecap:butt;stroke-linejoin:round;}</style>
 </defs>
 <g id="figure_1">
  <g id="patch_1">
   <path d="M 0 144 
L 216 144 
L 216 0 
L 0 0 
z
" style="fill:#ffffff;"/>
  </g>
  <g id="axes_1">
   <g id="patch_2">
    <path d="M 32.4 115.2 
L 183.6 115.2 
L 183.6 28.8 
L 32.4 28.8 
z
" style="fill:#ffffff;"/>
   </g>
   <g id="matplotlib.axis_1">
    <g id="xtick_1">
     <g id="line2d_1">
      <defs>
       <path d="M 0 0 
L 0 3.5 
" id="md0c7cd79c8" style="stroke:#999999;stroke-width:0.8;"/>
      </defs>
      <g>
       <use style="fill:#999999;stroke:#999999;stroke-width:0.8;" x="60.348244" xlink:href="#md0c7cd79c8" y="115.2"/>
      </g>
     </g>
     <g id="text_1">
      <!-- 0 -->
      <g style="fill:#999999;" transform="translate(58.679963 126.504063)scale(0.06 -0.06)">
       <defs>
        <path d="M 27.046875 69.921875 
Q 40.625 69.921875 46.6875 58.734375 
Q 51.375 50.09375 51.375 35.0625 
Q 51.375 20.796875 47.125 11.46875 
Q 40.96875 -1.90625 27 -1.90625 
Q 14.40625 -1.90625 8.25 9.03125 
Q 3.125 18.171875 3.125 33.546875 
Q 3.125 45.453125 6.203125 54 
Q 11.96875 69.921875 27.046875 69.921875 
z
M 26.953125 6.109375 
Q 33.796875 6.109375 37.84375 12.15625 
Q 41.890625 18.21875 41.890625 34.71875 
Q 41.890625 46.625 38.953125 54.3125 
Q 36.03125 62.015625 27.59375 62.015625 
Q 19.828125 62.015625 16.234375 54.703125 
Q 12.640625 47.40625 12.640625 33.203125 
Q 12.640625 22.515625 14.9375 16.015625 
Q 18.453125 6.109375 26.953125 6.109375 
z
" id="Helvetica-48"/>
       </defs>
       <use xlink:href="#Helvetica-48"/>
      </g>
     </g>
    </g>
    <g id="xtick_2">
     <g id="line2d_2">
      <g>
       <use style="fill:#999999;stroke:#999999;stroke-width:0.8;" x="99.475786" xlink:href="#md0c7cd79c8" y="115.2"/>
      </g>
     </g>
     <g id="text_2">
      <!-- 2 -->
      <g style="fill:#999999;" transform="translate(97.807504 126.504063)scale(0.06 -0.06)">
       <defs>
        <path d="M 3.125 0 
Q 3.609375 9.03125 6.859375 15.71875 
Q 10.109375 22.40625 19.53125 27.875 
L 28.90625 33.296875 
Q 35.203125 36.96875 37.75 39.546875 
Q 41.75 43.609375 41.75 48.828125 
Q 41.75 54.9375 38.078125 58.515625 
Q 34.421875 62.109375 28.328125 62.109375 
Q 19.28125 62.109375 15.828125 55.28125 
Q 13.96875 51.609375 13.765625 45.125 
L 4.828125 45.125 
Q 4.984375 54.25 8.203125 60.015625 
Q 13.921875 70.171875 28.375 70.171875 
Q 40.375 70.171875 45.921875 63.671875 
Q 51.46875 57.171875 51.46875 49.21875 
Q 51.46875 40.828125 45.5625 34.859375 
Q 42.140625 31.390625 33.296875 26.46875 
L 26.609375 22.75 
Q 21.828125 20.125 19.09375 17.71875 
Q 14.203125 13.484375 12.9375 8.296875 
L 51.125 8.296875 
L 51.125 0 
L 3.125 0 
z
" id="Helvetica-50"/>
       </defs>
       <use xlink:href="#Helvetica-50"/>
      </g>
     </g>
    </g>
    <g id="xtick_3">
     <g id="line2d_3">
      <g>
       <use style="fill:#999999;stroke:#999999;stroke-width:0.8;" x="138.603327" xlink:href="#md0c7cd79c8" y="115.2"/>
      </g>
     </g>
     <g id="text_3">
      <!-- 4 -->
      <g style="fill:#999999;" transform="translate(136.935046 126.504063)scale(0.06 -0.06)">
       <defs>
        <path d="M 33.0625 24.75 
L 33.0625 56.453125 
L 10.640625 24.75 
z
M 33.203125 0 
L 33.203125 17.09375 
L 2.546875 17.09375 
L 2.546875 25.6875 
L 34.578125 70.125 
L 42 70.125 
L 42 24.75 
L 52.296875 24.75 
L 52.296875 17.09375 
L 42 17.09375 
L 42 0 
z
" id="Helvetica-52"/>
       </defs>
       <use xlink:href="#Helvetica-52"/>
      </g>
     </g>
    </g>
    <g id="xtick_4">
     <g id="line2d_4">
      <g>
       <use style="fill:#999999;stroke:#999999;stroke-width:0.8;" x="177.730869" xlink:href="#md0c7cd79c8" y="115.2"/>
      </g>
     </g>
     <g id="text_4">
      <!-- 6 -->
      <g style="fill:#999999;" transform="translate(176.062588 126.504063)scale(0.06 -0.06)">
       <defs>
        <path d="M 29.25 70.21875 
Q 40.96875 70.21875 45.578125 64.140625 
Q 50.203125 58.0625 50.203125 51.609375 
L 41.5 51.609375 
Q 40.71875 55.765625 39.015625 58.109375 
Q 35.84375 62.5 29.390625 62.5 
Q 22.015625 62.5 17.671875 55.6875 
Q 13.328125 48.875 12.84375 36.1875 
Q 15.875 40.625 20.453125 42.828125 
Q 24.65625 44.78125 29.828125 44.78125 
Q 38.625 44.78125 45.15625 39.15625 
Q 51.703125 33.546875 51.703125 22.40625 
Q 51.703125 12.890625 45.5 5.53125 
Q 39.3125 -1.8125 27.828125 -1.8125 
Q 18.015625 -1.8125 10.890625 5.640625 
Q 3.765625 13.09375 3.765625 30.71875 
Q 3.765625 43.75 6.9375 52.828125 
Q 13.03125 70.21875 29.25 70.21875 
z
M 28.609375 6 
Q 35.546875 6 38.984375 10.65625 
Q 42.4375 15.328125 42.4375 21.6875 
Q 42.4375 27.046875 39.359375 31.90625 
Q 36.28125 36.765625 28.171875 36.765625 
Q 22.515625 36.765625 18.234375 33 
Q 13.96875 29.25 13.96875 21.6875 
Q 13.96875 15.046875 17.84375 10.515625 
Q 21.734375 6 28.609375 6 
z
" id="Helvetica-54"/>
       </defs>
       <use xlink:href="#Helvetica-54"/>
      </g>
     </g>
    </g>
    <g id="text_5">
     <!-- Week -->
     <g style="fill:#999999;" transform="translate(100.331719 136.05875)scale(0.06 -0.06)">
      <defs>
       <path d="M 12.359375 71.734375 
L 25.875 13.375 
L 42.09375 71.734375 
L 52.640625 71.734375 
L 68.84375 13.375 
L 82.375 71.734375 
L 93.015625 71.734375 
L 74.171875 0 
L 63.96875 0 
L 47.40625 59.46875 
L 30.765625 0 
L 20.5625 0 
L 1.8125 71.734375 
z
" id="Helvetica-87"/>
       <path d="M 28.21875 53.46875 
Q 33.796875 53.46875 39.015625 50.859375 
Q 44.234375 48.25 46.96875 44.09375 
Q 49.609375 40.140625 50.484375 34.859375 
Q 51.265625 31.25 51.265625 23.34375 
L 12.9375 23.34375 
Q 13.1875 15.375 16.703125 10.5625 
Q 20.21875 5.765625 27.59375 5.765625 
Q 34.46875 5.765625 38.578125 10.296875 
Q 40.921875 12.9375 41.890625 16.40625 
L 50.53125 16.40625 
Q 50.203125 13.53125 48.265625 9.984375 
Q 46.34375 6.453125 43.953125 4.203125 
Q 39.9375 0.296875 34.03125 -1.078125 
Q 30.859375 -1.859375 26.859375 -1.859375 
Q 17.09375 -1.859375 10.296875 5.25 
Q 3.515625 12.359375 3.515625 25.140625 
Q 3.515625 37.75 10.34375 45.609375 
Q 17.1875 53.46875 28.21875 53.46875 
z
M 42.234375 30.328125 
Q 41.703125 36.03125 39.75 39.453125 
Q 36.140625 45.796875 27.6875 45.796875 
Q 21.625 45.796875 17.515625 41.421875 
Q 13.421875 37.0625 13.1875 30.328125 
z
M 27.390625 53.5625 
z
" id="Helvetica-101"/>
       <path d="M 6.25 71.734375 
L 14.703125 71.734375 
L 14.703125 30.078125 
L 37.25 52.296875 
L 48.484375 52.296875 
L 28.46875 32.71875 
L 49.609375 0 
L 38.375 0 
L 22.078125 26.375 
L 14.703125 19.625 
L 14.703125 0 
L 6.25 0 
z
" id="Helvetica-107"/>
      </defs>
      <use xlink:href="#Helvetica-87"/>
      <use x="94.384766" xlink:href="#Helvetica-101"/>
      <use x="150" xlink:href="#Helvetica-101"/>
      <use x="205.615234" xlink:href="#Helvetica-107"/>
     </g>
    </g>
   </g>
   <g id="matplotlib.axis_2">
    <g id="ytick_1">
     <g id="line2d_5">
      <path clip-path="url(#p1b711bf8c7)" d="M 32.4 115.2 
L 183.6 115.2 
" style="fill:none;stroke:#e6e6e6;stroke-linecap:round;stroke-width:0.8;"/>
     </g>
     <g id="text_6">
      <!-- 0.0 -->
      <g style="fill:#999999;" transform="translate(32.4 113.949375)scale(0.06 -0.06)">
       <defs>
        <path d="M 8.546875 10.640625 
L 18.75 10.640625 
L 18.75 0 
L 8.546875 0 
z
" id="Helvetica-46"/>
       </defs>
       <use xlink:href="#Helvetica-48"/>
       <use x="55.615234" xlink:href="#Helvetica-46"/>
       <use x="83.398438" xlink:href="#Helvetica-48"/>
      </g>
     </g>
    </g>
    <g id="ytick_2">
     <g id="line2d_6">
      <path clip-path="url(#p1b711bf8c7)" d="M 32.4 102.779271 
L 183.6 102.779271 
" style="fill:none;stroke:#e6e6e6;stroke-linecap:round;stroke-width:0.8;"/>
     </g>
     <g id="text_7">
      <!-- 0.5 -->
      <g style="fill:#999999;" transform="translate(32.4 101.528646)scale(0.06 -0.06)">
       <defs>
        <path d="M 12.359375 17.828125 
Q 13.234375 10.296875 19.34375 7.421875 
Q 22.46875 5.953125 26.5625 5.953125 
Q 34.375 5.953125 38.125 10.9375 
Q 41.890625 15.921875 41.890625 21.96875 
Q 41.890625 29.296875 37.421875 33.296875 
Q 32.953125 37.3125 26.703125 37.3125 
Q 22.171875 37.3125 18.921875 35.546875 
Q 15.671875 33.796875 13.375 30.671875 
L 5.765625 31.109375 
L 11.078125 68.75 
L 47.40625 68.75 
L 47.40625 60.25 
L 17.671875 60.25 
L 14.703125 40.828125 
Q 17.140625 42.671875 19.34375 43.609375 
Q 23.25 45.21875 28.375 45.21875 
Q 37.984375 45.21875 44.671875 39.015625 
Q 51.375 32.8125 51.375 23.296875 
Q 51.375 13.375 45.234375 5.796875 
Q 39.109375 -1.765625 25.6875 -1.765625 
Q 17.140625 -1.765625 10.5625 3.046875 
Q 4 7.859375 3.21875 17.828125 
z
" id="Helvetica-53"/>
       </defs>
       <use xlink:href="#Helvetica-48"/>
       <use x="55.615234" xlink:href="#Helvetica-46"/>
       <use x="83.398438" xlink:href="#Helvetica-53"/>
      </g>
     </g>
    </g>
    <g id="ytick_3">
     <g id="line2d_7">
      <path clip-path="url(#p1b711bf8c7)" d="M 32.4 90.358542 
L 183.6 90.358542 
" style="fill:none;stroke:#e6e6e6;stroke-linecap:round;stroke-width:0.8;"/>
     </g>
     <g id="text_8">
      <!-- 1.0 -->
      <g style="fill:#999999;" transform="translate(32.4 89.107917)scale(0.06 -0.06)">
       <defs>
        <path d="M 9.578125 49.515625 
L 9.578125 56.25 
Q 19.09375 57.171875 22.84375 59.34375 
Q 26.609375 61.53125 28.46875 69.625 
L 35.40625 69.625 
L 35.40625 0 
L 26.03125 0 
L 26.03125 49.515625 
z
" id="Helvetica-49"/>
       </defs>
       <use xlink:href="#Helvetica-49"/>
       <use x="55.615234" xlink:href="#Helvetica-46"/>
       <use x="83.398438" xlink:href="#Helvetica-48"/>
      </g>
     </g>
    </g>
    <g id="ytick_4">
     <g id="line2d_8">
      <path clip-path="url(#p1b711bf8c7)" d="M 32.4 77.937813 
L 183.6 77.937813 
" style="fill:none;stroke:#e6e6e6;stroke-linecap:round;stroke-width:0.8;"/>
     </g>
     <g id="text_9">
      <!-- 1.5 -->
      <g style="fill:#999999;" transform="translate(32.4 76.687188)scale(0.06 -0.06)">
       <use xlink:href="#Helvetica-49"/>
       <use x="55.615234" xlink:href="#Helvetica-46"/>
       <use x="83.398438" xlink:href="#Helvetica-53"/>
      </g>
     </g>
    </g>
    <g id="ytick_5">
     <g id="line2d_9">
      <path clip-path="url(#p1b711bf8c7)" d="M 32.4 65.517083 
L 183.6 65.517083 
" style="fill:none;stroke:#e6e6e6;stroke-linecap:round;stroke-width:0.8;"/>
     </g>
     <g id="text_10">
      <!-- 2.0 -->
      <g style="fill:#999999;" transform="translate(32.4 64.266458)scale(0.06 -0.06)">
       <use xlink:href="#Helvetica-50"/>
       <use x="55.615234" xlink:href="#Helvetica-46"/>
       <use x="83.398438" xlink:href="#Helvetica-48"/>
      </g>
     </g>
    </g>
    <g id="ytick_6">
     <g id="line2d_10">
      <path clip-path="url(#p1b711bf8c7)" d="M 32.4 53.096354 
L 183.6 53.096354 
" style="fill:none;stroke:#e6e6e6;stroke-linecap:round;stroke-width:0.8;"/>
     </g>
     <g id="text_11">
      <!-- 2.5 -->
      <g style="fill:#999999;" transform="translate(32.4 51.845729)scale(0.06 -0.06)">
       <use xlink:href="#Helvetica-50"/>
       <use x="55.615234" xlink:href="#Helvetica-46"/>
       <use x="83.398438" xlink:href="#Helvetica-53"/>
      </g>
     </g>
    </g>
    <g id="ytick_7">
     <g id="line2d_11">
      <path clip-path="url(#p1b711bf8c7)" d="M 32.4 40.675625 
L 183.6 40.675625 
" style="fill:none;stroke:#e6e6e6;stroke-linecap:round;stroke-width:0.8;"/>
     </g>
     <g id="text_12">
      <!-- 3.0 -->
      <g style="fill:#999999;" transform="translate(32.4 39.425)scale(0.06 -0.06)">
       <defs>
        <path d="M 25.984375 -1.90625 
Q 13.578125 -1.90625 7.984375 4.90625 
Q 2.390625 11.71875 2.390625 21.484375 
L 11.578125 21.484375 
Q 12.15625 14.703125 14.109375 11.625 
Q 17.53125 6.109375 26.46875 6.109375 
Q 33.40625 6.109375 37.59375 9.8125 
Q 41.796875 13.53125 41.796875 19.390625 
Q 41.796875 26.609375 37.375 29.484375 
Q 32.953125 32.375 25.09375 32.375 
Q 24.21875 32.375 23.3125 32.34375 
Q 22.40625 32.328125 21.484375 32.28125 
L 21.484375 40.046875 
Q 22.859375 39.890625 23.78125 39.84375 
Q 24.703125 39.796875 25.78125 39.796875 
Q 30.71875 39.796875 33.890625 41.359375 
Q 39.453125 44.09375 39.453125 51.125 
Q 39.453125 56.34375 35.734375 59.171875 
Q 32.03125 62.015625 27.09375 62.015625 
Q 18.3125 62.015625 14.9375 56.15625 
Q 13.09375 52.9375 12.84375 46.96875 
L 4.15625 46.96875 
Q 4.15625 54.78125 7.28125 60.25 
Q 12.640625 70.015625 26.171875 70.015625 
Q 36.859375 70.015625 42.71875 65.25 
Q 48.578125 60.5 48.578125 51.46875 
Q 48.578125 45.015625 45.125 41.015625 
Q 42.96875 38.53125 39.546875 37.109375 
Q 45.0625 35.59375 48.15625 31.265625 
Q 51.265625 26.953125 51.265625 20.703125 
Q 51.265625 10.6875 44.671875 4.390625 
Q 38.09375 -1.90625 25.984375 -1.90625 
z
" id="Helvetica-51"/>
       </defs>
       <use xlink:href="#Helvetica-51"/>
       <use x="55.615234" xlink:href="#Helvetica-46"/>
       <use x="83.398438" xlink:href="#Helvetica-48"/>
      </g>
     </g>
    </g>
   </g>
   <g id="line2d_12">
    <path clip-path="url(#p1b711bf8c7)" d="M 60.348244 89.466797 
L 79.912015 63.606202 
L 99.475786 62.332281 
L 119.039556 80.804135 
L 138.603327 84.307417 
L 158.167098 96.154882 
L 177.730869 99.721861 
" style="fill:none;stroke:#000000;stroke-linecap:round;stroke-width:2;"/>
   </g>
   <g id="line2d_13">
    <path clip-path="url(#p1b711bf8c7)" d="M 60.348244 92.319709 
L 79.912015 38.060735 
L 99.475786 32.177231 
L 119.039556 80.552703 
L 138.603327 74.015477 
L 158.167098 85.782484 
L 177.730869 81.860148 
" style="fill:none;stroke:#ff0000;stroke-linecap:round;stroke-width:2;"/>
   </g>
   <g id="text_13">
    <!-- Average no. messages sent, per user -->
    <g style="fill:#404040;" transform="translate(32.4 12.8)scale(0.08 -0.08)">
     <defs>
      <path d="M 27.296875 27.203125 
L 45.5625 27.203125 
L 36.578125 55.515625 
z
M 28.21875 71.96875 
L 45.21875 71.96875 
L 70.703125 0 
L 54.390625 0 
L 49.75 14.796875 
L 23.25 14.796875 
L 18.265625 0 
L 2.546875 0 
z
M 36.625 71.96875 
z
" id="Helvetica-Bold-65"/>
      <path d="M 39.3125 53.21875 
L 54.25 53.21875 
L 35.0625 0 
L 20.359375 0 
L 1.265625 53.21875 
L 16.890625 53.21875 
L 27.984375 13.96875 
z
" id="Helvetica-Bold-118"/>
      <path d="M 27.484375 43.171875 
Q 22.65625 43.171875 19.984375 40.140625 
Q 17.328125 37.109375 16.65625 31.9375 
L 38.28125 31.9375 
Q 37.9375 37.453125 34.9375 40.3125 
Q 31.9375 43.171875 27.484375 43.171875 
z
M 27.484375 54.640625 
Q 34.125 54.640625 39.453125 52.140625 
Q 44.78125 49.65625 48.25 44.28125 
Q 51.375 39.546875 52.296875 33.296875 
Q 52.828125 29.640625 52.734375 22.75 
L 16.3125 22.75 
Q 16.609375 14.75 21.34375 11.53125 
Q 24.21875 9.515625 28.265625 9.515625 
Q 32.5625 9.515625 35.25 11.96875 
Q 36.71875 13.28125 37.84375 15.625 
L 52.046875 15.625 
Q 51.515625 10.890625 47.125 6 
Q 40.28125 -1.765625 27.984375 -1.765625 
Q 17.828125 -1.765625 10.0625 4.78125 
Q 2.296875 11.328125 2.296875 26.078125 
Q 2.296875 39.890625 9.296875 47.265625 
Q 16.3125 54.640625 27.484375 54.640625 
z
M 28.46875 54.640625 
z
" id="Helvetica-Bold-101"/>
      <path d="M 35.40625 54.5 
Q 35.796875 54.5 36.0625 54.46875 
Q 36.328125 54.4375 37.25 54.390625 
L 37.25 40.140625 
Q 35.9375 40.28125 34.90625 40.328125 
Q 33.890625 40.375 33.25 40.375 
Q 24.859375 40.375 21.96875 34.90625 
Q 20.359375 31.84375 20.359375 25.4375 
L 20.359375 0 
L 6.34375 0 
L 6.34375 53.21875 
L 19.625 53.21875 
L 19.625 43.953125 
Q 22.859375 49.265625 25.25 51.21875 
Q 29.15625 54.5 35.40625 54.5 
z
" id="Helvetica-Bold-114"/>
      <path d="M 35.84375 25.875 
Q 34.515625 25.046875 33.171875 24.53125 
Q 31.84375 24.03125 29.5 23.578125 
L 26.375 23 
Q 21.96875 22.21875 20.0625 21.09375 
Q 16.84375 19.1875 16.84375 15.1875 
Q 16.84375 11.625 18.8125 10.03125 
Q 20.796875 8.453125 23.640625 8.453125 
Q 28.125 8.453125 31.90625 11.078125 
Q 35.6875 13.71875 35.84375 20.703125 
z
M 27.390625 32.375 
Q 31.25 32.859375 32.90625 33.59375 
Q 35.890625 34.859375 35.890625 37.546875 
Q 35.890625 40.828125 33.609375 42.0625 
Q 31.34375 43.3125 26.953125 43.3125 
Q 22.015625 43.3125 19.96875 40.875 
Q 18.5 39.0625 18.015625 35.984375 
L 4.59375 35.984375 
Q 5.03125 42.96875 8.5 47.46875 
Q 14.015625 54.5 27.4375 54.5 
Q 36.1875 54.5 42.96875 51.03125 
Q 49.75 47.5625 49.75 37.9375 
L 49.75 13.53125 
Q 49.75 10.984375 49.859375 7.375 
Q 50 4.640625 50.6875 3.65625 
Q 51.375 2.6875 52.734375 2.046875 
L 52.734375 0 
L 37.59375 0 
Q 36.96875 1.609375 36.71875 3.015625 
Q 36.46875 4.4375 36.328125 6.25 
Q 33.453125 3.125 29.6875 0.921875 
Q 25.203125 -1.65625 19.53125 -1.65625 
Q 12.3125 -1.65625 7.59375 2.46875 
Q 2.875 6.59375 2.875 14.15625 
Q 2.875 23.96875 10.453125 28.375 
Q 14.59375 30.765625 22.65625 31.78125 
z
M 28.125 54.640625 
z
" id="Helvetica-Bold-97"/>
      <path d="M 29.34375 11.421875 
Q 34.234375 11.421875 37.59375 15.109375 
Q 40.96875 18.796875 40.96875 26.859375 
Q 40.96875 34.421875 37.765625 38.375 
Q 34.578125 42.328125 29.203125 42.328125 
Q 21.875 42.328125 19.09375 35.453125 
Q 17.625 31.78125 17.625 26.421875 
Q 17.625 21.78125 19.1875 18.171875 
Q 22.015625 11.421875 29.34375 11.421875 
z
M 25.875 54.5 
Q 29.890625 54.5 32.859375 53.265625 
Q 37.9375 51.171875 41.0625 45.5625 
L 41.0625 53.21875 
L 54.59375 53.21875 
L 54.59375 2.734375 
Q 54.59375 -7.5625 51.125 -12.796875 
Q 45.171875 -21.78125 28.265625 -21.78125 
Q 18.0625 -21.78125 11.609375 -17.765625 
Q 5.171875 -13.765625 4.5 -5.8125 
L 19.625 -5.8125 
Q 20.21875 -8.25 21.53125 -9.328125 
Q 23.78125 -11.234375 29.109375 -11.234375 
Q 36.625 -11.234375 39.15625 -6.203125 
Q 40.828125 -2.984375 40.828125 4.640625 
L 40.828125 8.0625 
Q 38.8125 4.640625 36.53125 2.9375 
Q 32.375 -0.25 25.734375 -0.25 
Q 15.484375 -0.25 9.34375 6.953125 
Q 3.21875 14.15625 3.21875 26.46875 
Q 3.21875 38.328125 9.125 46.40625 
Q 15.046875 54.5 25.875 54.5 
z
M 30.328125 54.640625 
z
" id="Helvetica-Bold-103"/>
      <path id="Helvetica-Bold-32"/>
      <path d="M 35.984375 54.5 
Q 44.234375 54.5 49.484375 50.171875 
Q 54.734375 45.84375 54.734375 35.84375 
L 54.734375 0 
L 40.484375 0 
L 40.484375 32.375 
Q 40.484375 36.578125 39.359375 38.8125 
Q 37.3125 42.921875 31.546875 42.921875 
Q 24.46875 42.921875 21.828125 36.921875 
Q 20.453125 33.734375 20.453125 28.8125 
L 20.453125 0 
L 6.59375 0 
L 6.59375 53.125 
L 20.015625 53.125 
L 20.015625 45.359375 
Q 22.703125 49.46875 25.09375 51.265625 
Q 29.390625 54.5 35.984375 54.5 
z
M 30.859375 54.640625 
z
" id="Helvetica-Bold-110"/>
      <path d="M 30.375 9.8125 
Q 36.46875 9.8125 39.734375 14.15625 
Q 43.015625 18.5 43.015625 26.515625 
Q 43.015625 34.515625 39.734375 38.84375 
Q 36.46875 43.171875 30.375 43.171875 
Q 24.265625 43.171875 20.96875 38.84375 
Q 17.671875 34.515625 17.671875 26.515625 
Q 17.671875 18.5 20.96875 14.15625 
Q 24.265625 9.8125 30.375 9.8125 
z
M 57.625 26.515625 
Q 57.625 14.796875 50.875 6.46875 
Q 44.140625 -1.859375 30.421875 -1.859375 
Q 16.703125 -1.859375 9.953125 6.46875 
Q 3.21875 14.796875 3.21875 26.515625 
Q 3.21875 38.03125 9.953125 46.484375 
Q 16.703125 54.9375 30.421875 54.9375 
Q 44.140625 54.9375 50.875 46.484375 
Q 57.625 38.03125 57.625 26.515625 
z
M 30.421875 54.640625 
z
" id="Helvetica-Bold-111"/>
      <path d="M 6.25 14.546875 
L 21.046875 14.546875 
L 21.046875 0 
L 6.25 0 
z
" id="Helvetica-Bold-46"/>
      <path d="M 65.96875 54.390625 
Q 69.484375 54.390625 72.890625 53.015625 
Q 76.3125 51.65625 79.109375 48.25 
Q 81.34375 45.453125 82.125 41.40625 
Q 82.625 38.71875 82.625 33.546875 
L 82.515625 0 
L 68.265625 0 
L 68.265625 33.890625 
Q 68.265625 36.921875 67.28125 38.875 
Q 65.4375 42.578125 60.453125 42.578125 
Q 54.6875 42.578125 52.484375 37.796875 
Q 51.375 35.25 51.375 31.6875 
L 51.375 0 
L 37.359375 0 
L 37.359375 31.6875 
Q 37.359375 36.421875 36.375 38.578125 
Q 34.625 42.4375 29.5 42.4375 
Q 23.53125 42.4375 21.484375 38.578125 
Q 20.359375 36.375 20.359375 32.03125 
L 20.359375 0 
L 6.25 0 
L 6.25 53.125 
L 19.78125 53.125 
L 19.78125 45.359375 
Q 22.359375 49.515625 24.65625 51.265625 
Q 28.71875 54.390625 35.15625 54.390625 
Q 41.265625 54.390625 45.015625 51.703125 
Q 48.046875 49.21875 49.609375 45.3125 
Q 52.34375 50 56.390625 52.203125 
Q 60.6875 54.390625 65.96875 54.390625 
z
" id="Helvetica-Bold-109"/>
      <path d="M 17.328125 17 
Q 17.78125 13.28125 19.234375 11.71875 
Q 21.828125 8.9375 28.8125 8.9375 
Q 32.90625 8.9375 35.328125 10.15625 
Q 37.75 11.375 37.75 13.8125 
Q 37.75 16.15625 35.796875 17.390625 
Q 33.84375 18.609375 21.296875 21.578125 
Q 12.25 23.828125 8.546875 27.203125 
Q 4.828125 30.515625 4.828125 36.765625 
Q 4.828125 44.140625 10.609375 49.4375 
Q 16.40625 54.734375 26.90625 54.734375 
Q 36.859375 54.734375 43.140625 50.75 
Q 49.421875 46.78125 50.34375 37.015625 
L 36.421875 37.015625 
Q 36.140625 39.703125 34.90625 41.265625 
Q 32.625 44.09375 27.09375 44.09375 
Q 22.5625 44.09375 20.625 42.671875 
Q 18.703125 41.265625 18.703125 39.359375 
Q 18.703125 36.96875 20.75 35.890625 
Q 22.796875 34.765625 35.25 32.03125 
Q 43.5625 30.078125 47.703125 26.125 
Q 51.8125 22.125 51.8125 16.109375 
Q 51.8125 8.203125 45.921875 3.1875 
Q 40.046875 -1.8125 27.734375 -1.8125 
Q 15.1875 -1.8125 9.203125 3.484375 
Q 3.21875 8.796875 3.21875 17 
z
M 27.984375 54.640625 
z
" id="Helvetica-Bold-115"/>
      <path d="M 1.03125 42.828125 
L 1.03125 52.734375 
L 8.453125 52.734375 
L 8.453125 67.578125 
L 22.21875 67.578125 
L 22.21875 52.734375 
L 30.859375 52.734375 
L 30.859375 42.828125 
L 22.21875 42.828125 
L 22.21875 14.703125 
Q 22.21875 11.421875 23.046875 10.609375 
Q 23.875 9.8125 28.125 9.8125 
Q 28.765625 9.8125 29.46875 9.828125 
Q 30.171875 9.859375 30.859375 9.90625 
L 30.859375 -0.484375 
L 24.265625 -0.734375 
Q 14.40625 -1.078125 10.796875 2.6875 
Q 8.453125 5.078125 8.453125 10.0625 
L 8.453125 42.828125 
z
" id="Helvetica-Bold-116"/>
      <path d="M 5.765625 -11.578125 
Q 9.96875 -10.40625 11.9375 -7.671875 
Q 13.921875 -4.9375 14.203125 0 
L 5.765625 0 
L 5.765625 14.546875 
L 20.796875 14.546875 
L 20.796875 1.953125 
Q 20.796875 -1.375 19.921875 -4.984375 
Q 19.046875 -8.59375 16.65625 -11.234375 
Q 14.0625 -14.0625 10.5625 -15.5 
Q 7.078125 -16.9375 5.765625 -16.9375 
z
" id="Helvetica-Bold-44"/>
      <path d="M 43.171875 26.609375 
Q 43.171875 32.765625 40.359375 37.5 
Q 37.546875 42.234375 31.25 42.234375 
Q 23.6875 42.234375 20.84375 35.0625 
Q 19.390625 31.25 19.390625 25.390625 
Q 19.390625 16.109375 24.3125 12.359375 
Q 27.25 10.15625 31.25 10.15625 
Q 37.0625 10.15625 40.109375 14.640625 
Q 43.171875 19.140625 43.171875 26.609375 
z
M 35.25 54.390625 
Q 44.578125 54.390625 51.046875 47.5 
Q 57.515625 40.625 57.515625 27.296875 
Q 57.515625 13.234375 51.1875 5.859375 
Q 44.875 -1.515625 34.90625 -1.515625 
Q 28.5625 -1.515625 24.359375 1.65625 
Q 22.078125 3.421875 19.875 6.78125 
L 19.875 -20.953125 
L 6.109375 -20.953125 
L 6.109375 53.21875 
L 19.4375 53.21875 
L 19.4375 45.359375 
Q 21.6875 48.828125 24.21875 50.828125 
Q 28.859375 54.390625 35.25 54.390625 
z
" id="Helvetica-Bold-112"/>
      <path d="M 20.359375 53.21875 
L 20.359375 21.140625 
Q 20.359375 16.609375 21.4375 14.3125 
Q 23.34375 10.25 28.90625 10.25 
Q 36.03125 10.25 38.671875 16.015625 
Q 40.046875 19.140625 40.046875 24.265625 
L 40.046875 53.21875 
L 54.15625 53.21875 
L 54.15625 0 
L 40.625 0 
L 40.625 7.515625 
Q 40.4375 7.28125 39.65625 6.046875 
Q 38.875 4.828125 37.796875 3.90625 
Q 34.515625 0.984375 31.46875 -0.09375 
Q 28.421875 -1.171875 24.3125 -1.171875 
Q 12.5 -1.171875 8.40625 7.328125 
Q 6.109375 12.015625 6.109375 21.140625 
L 6.109375 53.21875 
z
M 30.125 54.640625 
z
" id="Helvetica-Bold-117"/>
     </defs>
     <use xlink:href="#Helvetica-Bold-65"/>
     <use x="72.216797" xlink:href="#Helvetica-Bold-118"/>
     <use x="127.832031" xlink:href="#Helvetica-Bold-101"/>
     <use x="183.447266" xlink:href="#Helvetica-Bold-114"/>
     <use x="222.363281" xlink:href="#Helvetica-Bold-97"/>
     <use x="277.978516" xlink:href="#Helvetica-Bold-103"/>
     <use x="339.0625" xlink:href="#Helvetica-Bold-101"/>
     <use x="394.677734" xlink:href="#Helvetica-Bold-32"/>
     <use x="422.460938" xlink:href="#Helvetica-Bold-110"/>
     <use x="483.544922" xlink:href="#Helvetica-Bold-111"/>
     <use x="544.628906" xlink:href="#Helvetica-Bold-46"/>
     <use x="572.412109" xlink:href="#Helvetica-Bold-32"/>
     <use x="600.195312" xlink:href="#Helvetica-Bold-109"/>
     <use x="689.111328" xlink:href="#Helvetica-Bold-101"/>
     <use x="744.726562" xlink:href="#Helvetica-Bold-115"/>
     <use x="800.341797" xlink:href="#Helvetica-Bold-115"/>
     <use x="855.957031" xlink:href="#Helvetica-Bold-97"/>
     <use x="911.572266" xlink:href="#Helvetica-Bold-103"/>
     <use x="972.65625" xlink:href="#Helvetica-Bold-101"/>
     <use x="1028.271484" xlink:href="#Helvetica-Bold-115"/>
     <use x="1083.886719" xlink:href="#Helvetica-Bold-32"/>
     <use x="1111.669922" xlink:href="#Helvetica-Bold-115"/>
     <use x="1167.285156" xlink:href="#Helvetica-Bold-101"/>
     <use x="1222.900391" xlink:href="#Helvetica-Bold-110"/>
     <use x="1283.984375" xlink:href="#Helvetica-Bold-116"/>
     <use x="1317.285156" xlink:href="#Helvetica-Bold-44"/>
     <use x="1345.068359" xlink:href="#Helvetica-Bold-32"/>
     <use x="1372.851562" xlink:href="#Helvetica-Bold-112"/>
     <use x="1433.935547" xlink:href="#Helvetica-Bold-101"/>
     <use x="1489.550781" xlink:href="#Helvetica-Bold-114"/>
     <use x="1528.466797" xlink:href="#Helvetica-Bold-32"/>
     <use x="1556.25" xlink:href="#Helvetica-Bold-117"/>
     <use x="1617.333984" xlink:href="#Helvetica-Bold-115"/>
     <use x="1672.949219" xlink:href="#Helvetica-Bold-101"/>
     <use x="1728.564453" xlink:href="#Helvetica-Bold-114"/>
    </g>
   </g>
   <g id="text_14">
    <!-- Private messages -->
    <g style="fill:#404040;" transform="translate(32.4 20.8)scale(0.06 -0.06)">
     <defs>
      <path d="M 8.546875 71.734375 
L 40.828125 71.734375 
Q 50.390625 71.734375 56.25 66.328125 
Q 62.109375 60.9375 62.109375 51.171875 
Q 62.109375 42.78125 56.875 36.546875 
Q 51.65625 30.328125 40.828125 30.328125 
L 18.265625 30.328125 
L 18.265625 0 
L 8.546875 0 
z
M 52.296875 51.125 
Q 52.296875 59.03125 46.4375 61.859375 
Q 43.21875 63.375 37.59375 63.375 
L 18.265625 63.375 
L 18.265625 38.53125 
L 37.59375 38.53125 
Q 44.140625 38.53125 48.21875 41.3125 
Q 52.296875 44.09375 52.296875 51.125 
z
" id="Helvetica-80"/>
      <path d="M 6.6875 52.296875 
L 15.046875 52.296875 
L 15.046875 43.265625 
Q 16.0625 45.90625 20.0625 49.6875 
Q 24.078125 53.46875 29.296875 53.46875 
Q 29.546875 53.46875 30.125 53.421875 
Q 30.71875 53.375 32.125 53.21875 
L 32.125 43.953125 
Q 31.34375 44.09375 30.6875 44.140625 
Q 30.03125 44.1875 29.25 44.1875 
Q 22.609375 44.1875 19.046875 39.90625 
Q 15.484375 35.640625 15.484375 30.078125 
L 15.484375 0 
L 6.6875 0 
z
" id="Helvetica-114"/>
      <path d="M 6.453125 52.046875 
L 15.375 52.046875 
L 15.375 0 
L 6.453125 0 
z
M 6.453125 71.734375 
L 15.375 71.734375 
L 15.375 61.765625 
L 6.453125 61.765625 
z
" id="Helvetica-105"/>
      <path d="M 10.75 52.296875 
L 24.703125 9.71875 
L 39.3125 52.296875 
L 48.921875 52.296875 
L 29.203125 0 
L 19.828125 0 
L 0.53125 52.296875 
z
" id="Helvetica-118"/>
      <path d="M 13.1875 13.921875 
Q 13.1875 10.109375 15.96875 7.90625 
Q 18.75 5.71875 22.5625 5.71875 
Q 27.203125 5.71875 31.546875 7.859375 
Q 38.875 11.421875 38.875 19.53125 
L 38.875 26.609375 
Q 37.25 25.59375 34.703125 24.90625 
Q 32.171875 24.21875 29.734375 23.921875 
L 24.421875 23.25 
Q 19.625 22.609375 17.234375 21.234375 
Q 13.1875 18.953125 13.1875 13.921875 
z
M 34.46875 31.6875 
Q 37.5 32.078125 38.53125 34.234375 
Q 39.109375 35.40625 39.109375 37.59375 
Q 39.109375 42.09375 35.90625 44.109375 
Q 32.71875 46.140625 26.765625 46.140625 
Q 19.875 46.140625 17 42.4375 
Q 15.375 40.375 14.890625 36.328125 
L 6.6875 36.328125 
Q 6.9375 46 12.96875 49.78125 
Q 19 53.5625 26.953125 53.5625 
Q 36.1875 53.5625 41.9375 50.046875 
Q 47.65625 46.53125 47.65625 39.109375 
L 47.65625 8.984375 
Q 47.65625 7.625 48.21875 6.78125 
Q 48.78125 5.953125 50.59375 5.953125 
Q 51.171875 5.953125 51.90625 6.03125 
Q 52.640625 6.109375 53.46875 6.25 
L 53.46875 -0.25 
Q 51.421875 -0.828125 50.34375 -0.96875 
Q 49.265625 -1.125 47.40625 -1.125 
Q 42.875 -1.125 40.828125 2.09375 
Q 39.75 3.8125 39.3125 6.9375 
Q 36.625 3.421875 31.59375 0.828125 
Q 26.5625 -1.765625 20.515625 -1.765625 
Q 13.234375 -1.765625 8.609375 2.65625 
Q 4 7.078125 4 13.71875 
Q 4 21 8.546875 25 
Q 13.09375 29 20.453125 29.9375 
z
M 27.203125 53.5625 
z
" id="Helvetica-97"/>
      <path d="M 8.203125 66.890625 
L 17.09375 66.890625 
L 17.09375 52.296875 
L 25.4375 52.296875 
L 25.4375 45.125 
L 17.09375 45.125 
L 17.09375 10.984375 
Q 17.09375 8.25 18.953125 7.328125 
Q 19.96875 6.78125 22.359375 6.78125 
Q 23 6.78125 23.734375 6.8125 
Q 24.46875 6.84375 25.4375 6.9375 
L 25.4375 0 
Q 23.921875 -0.4375 22.28125 -0.625 
Q 20.65625 -0.828125 18.75 -0.828125 
Q 12.59375 -0.828125 10.390625 2.3125 
Q 8.203125 5.46875 8.203125 10.5 
L 8.203125 45.125 
L 1.125 45.125 
L 1.125 52.296875 
L 8.203125 52.296875 
z
" id="Helvetica-116"/>
      <path id="Helvetica-32"/>
      <path d="M 6.453125 52.296875 
L 15.140625 52.296875 
L 15.140625 44.875 
Q 18.265625 48.734375 20.796875 50.484375 
Q 25.140625 53.46875 30.671875 53.46875 
Q 36.921875 53.46875 40.71875 50.390625 
Q 42.875 48.640625 44.625 45.21875 
Q 47.5625 49.421875 51.515625 51.4375 
Q 55.46875 53.46875 60.40625 53.46875 
Q 70.953125 53.46875 74.75 45.84375 
Q 76.8125 41.75 76.8125 34.8125 
L 76.8125 0 
L 67.671875 0 
L 67.671875 36.328125 
Q 67.671875 41.546875 65.0625 43.5 
Q 62.453125 45.453125 58.6875 45.453125 
Q 53.515625 45.453125 49.78125 41.984375 
Q 46.046875 38.53125 46.046875 30.421875 
L 46.046875 0 
L 37.109375 0 
L 37.109375 34.125 
Q 37.109375 39.453125 35.84375 41.890625 
Q 33.84375 45.5625 28.375 45.5625 
Q 23.390625 45.5625 19.3125 41.703125 
Q 15.234375 37.84375 15.234375 27.734375 
L 15.234375 0 
L 6.453125 0 
z
" id="Helvetica-109"/>
      <path d="M 11.671875 16.40625 
Q 12.0625 12.015625 13.875 9.671875 
Q 17.1875 5.421875 25.390625 5.421875 
Q 30.28125 5.421875 33.984375 7.546875 
Q 37.703125 9.671875 37.703125 14.109375 
Q 37.703125 17.484375 34.71875 19.234375 
Q 32.8125 20.3125 27.203125 21.734375 
L 20.21875 23.484375 
Q 13.53125 25.140625 10.359375 27.203125 
Q 4.6875 30.765625 4.6875 37.0625 
Q 4.6875 44.484375 10.03125 49.0625 
Q 15.375 53.65625 24.421875 53.65625 
Q 36.234375 53.65625 41.453125 46.734375 
Q 44.734375 42.328125 44.625 37.25 
L 36.328125 37.25 
Q 36.078125 40.234375 34.234375 42.671875 
Q 31.203125 46.140625 23.734375 46.140625 
Q 18.75 46.140625 16.1875 44.234375 
Q 13.625 42.328125 13.625 39.203125 
Q 13.625 35.796875 17 33.734375 
Q 18.953125 32.515625 22.75 31.59375 
L 28.5625 30.171875 
Q 38.03125 27.875 41.265625 25.734375 
Q 46.390625 22.359375 46.390625 15.140625 
Q 46.390625 8.15625 41.09375 3.078125 
Q 35.796875 -2 24.953125 -2 
Q 13.28125 -2 8.421875 3.296875 
Q 3.5625 8.59375 3.21875 16.40625 
z
M 24.65625 53.5625 
z
" id="Helvetica-115"/>
      <path d="M 24.90625 53.21875 
Q 31.0625 53.21875 35.640625 50.203125 
Q 38.140625 48.484375 40.71875 45.21875 
L 40.71875 51.8125 
L 48.828125 51.8125 
L 48.828125 4.25 
Q 48.828125 -5.71875 45.90625 -11.46875 
Q 40.4375 -22.125 25.25 -22.125 
Q 16.796875 -22.125 11.03125 -18.328125 
Q 5.28125 -14.546875 4.59375 -6.5 
L 13.53125 -6.5 
Q 14.15625 -10.015625 16.0625 -11.921875 
Q 19.046875 -14.84375 25.4375 -14.84375 
Q 35.546875 -14.84375 38.671875 -7.71875 
Q 40.53125 -3.515625 40.375 7.28125 
Q 37.75 3.265625 34.03125 1.3125 
Q 30.328125 -0.640625 24.21875 -0.640625 
Q 15.71875 -0.640625 9.34375 5.390625 
Q 2.984375 11.421875 2.984375 25.34375 
Q 2.984375 38.484375 9.40625 45.84375 
Q 15.828125 53.21875 24.90625 53.21875 
z
M 40.71875 26.375 
Q 40.71875 36.078125 36.71875 40.765625 
Q 32.71875 45.453125 26.515625 45.453125 
Q 17.234375 45.453125 13.8125 36.765625 
Q 12.015625 32.125 12.015625 24.609375 
Q 12.015625 15.765625 15.59375 11.15625 
Q 19.1875 6.546875 25.25 6.546875 
Q 34.71875 6.546875 38.578125 15.09375 
Q 40.71875 19.921875 40.71875 26.375 
z
M 25.921875 53.5625 
z
" id="Helvetica-103"/>
     </defs>
     <use xlink:href="#Helvetica-80"/>
     <use x="66.699219" xlink:href="#Helvetica-114"/>
     <use x="100" xlink:href="#Helvetica-105"/>
     <use x="122.216797" xlink:href="#Helvetica-118"/>
     <use x="172.216797" xlink:href="#Helvetica-97"/>
     <use x="227.832031" xlink:href="#Helvetica-116"/>
     <use x="255.615234" xlink:href="#Helvetica-101"/>
     <use x="311.230469" xlink:href="#Helvetica-32"/>
     <use x="339.013672" xlink:href="#Helvetica-109"/>
     <use x="422.314453" xlink:href="#Helvetica-101"/>
     <use x="477.929688" xlink:href="#Helvetica-115"/>
     <use x="527.929688" xlink:href="#Helvetica-115"/>
     <use x="577.929688" xlink:href="#Helvetica-97"/>
     <use x="633.544922" xlink:href="#Helvetica-103"/>
     <use x="689.160156" xlink:href="#Helvetica-101"/>
     <use x="744.775391" xlink:href="#Helvetica-115"/>
    </g>
   </g>
   <g id="text_15">
    <!-- Completed -->
    <g transform="translate(152.599687 36.8)scale(0.06 -0.06)">
     <defs>
      <path d="M 4.5 35.40625 
Q 4.5 54.25 14.59375 64.453125 
Q 23.390625 73.34375 36.96875 73.34375 
Q 55.125 73.34375 63.53125 61.421875 
Q 68.171875 54.734375 68.5 48 
L 53.46875 48 
Q 52 53.171875 49.703125 55.8125 
Q 45.609375 60.5 37.546875 60.5 
Q 29.34375 60.5 24.609375 53.875 
Q 19.875 47.265625 19.875 35.15625 
Q 19.875 23.046875 24.875 17.015625 
Q 29.890625 10.984375 37.59375 10.984375 
Q 45.515625 10.984375 49.65625 16.15625 
Q 51.953125 18.953125 53.46875 24.515625 
L 68.359375 24.515625 
Q 66.40625 12.75 58.375 5.375 
Q 50.34375 -2 37.796875 -2 
Q 22.265625 -2 13.375 7.953125 
Q 4.5 17.96875 4.5 35.40625 
z
M 36.53125 74.171875 
z
" id="Helvetica-Bold-67"/>
      <path d="M 20.703125 0 
L 6.78125 0 
L 6.78125 71.96875 
L 20.703125 71.96875 
z
" id="Helvetica-Bold-108"/>
      <path d="M 26.125 54.5 
Q 30.953125 54.5 34.71875 52.375 
Q 38.484375 50.25 40.828125 46.484375 
L 40.828125 71.875 
L 54.9375 71.875 
L 54.9375 0 
L 41.40625 0 
L 41.40625 7.375 
Q 38.421875 2.640625 34.609375 0.484375 
Q 30.8125 -1.65625 25.140625 -1.65625 
Q 15.828125 -1.65625 9.453125 5.875 
Q 3.078125 13.421875 3.078125 25.25 
Q 3.078125 38.875 9.34375 46.6875 
Q 15.625 54.5 26.125 54.5 
z
M 29.15625 10.0625 
Q 35.0625 10.0625 38.140625 14.453125 
Q 41.21875 18.84375 41.21875 25.828125 
Q 41.21875 35.59375 36.28125 39.796875 
Q 33.25 42.328125 29.25 42.328125 
Q 23.140625 42.328125 20.28125 37.71875 
Q 17.4375 33.109375 17.4375 26.265625 
Q 17.4375 18.890625 20.34375 14.46875 
Q 23.25 10.0625 29.15625 10.0625 
z
" id="Helvetica-Bold-100"/>
     </defs>
     <use xlink:href="#Helvetica-Bold-67"/>
     <use x="72.216797" xlink:href="#Helvetica-Bold-111"/>
     <use x="133.300781" xlink:href="#Helvetica-Bold-109"/>
     <use x="222.216797" xlink:href="#Helvetica-Bold-112"/>
     <use x="283.300781" xlink:href="#Helvetica-Bold-108"/>
     <use x="311.083984" xlink:href="#Helvetica-Bold-101"/>
     <use x="366.699219" xlink:href="#Helvetica-Bold-116"/>
     <use x="400" xlink:href="#Helvetica-Bold-101"/>
     <use x="455.615234" xlink:href="#Helvetica-Bold-100"/>
    </g>
   </g>
   <g id="text_16">
    <!-- Churned -->
    <g style="fill:#ff0000;" transform="translate(158.93625 44.8)scale(0.06 -0.06)">
     <defs>
      <path d="M 35.84375 54.59375 
Q 40.765625 54.59375 44.796875 52.875 
Q 48.828125 51.171875 51.421875 47.65625 
Q 53.609375 44.671875 54.09375 41.515625 
Q 54.59375 38.375 54.59375 31.25 
L 54.59375 0 
L 40.375 0 
L 40.375 32.375 
Q 40.375 36.671875 38.921875 39.3125 
Q 37.015625 43.015625 31.6875 43.015625 
Q 26.171875 43.015625 23.3125 39.328125 
Q 20.453125 35.640625 20.453125 28.8125 
L 20.453125 0 
L 6.59375 0 
L 6.59375 71.734375 
L 20.453125 71.734375 
L 20.453125 46.296875 
Q 23.484375 50.921875 27.46875 52.75 
Q 31.453125 54.59375 35.84375 54.59375 
z
" id="Helvetica-Bold-104"/>
     </defs>
     <use xlink:href="#Helvetica-Bold-67"/>
     <use x="72.216797" xlink:href="#Helvetica-Bold-104"/>
     <use x="133.300781" xlink:href="#Helvetica-Bold-117"/>
     <use x="194.384766" xlink:href="#Helvetica-Bold-114"/>
     <use x="233.300781" xlink:href="#Helvetica-Bold-110"/>
     <use x="294.384766" xlink:href="#Helvetica-Bold-101"/>
     <use x="350" xlink:href="#Helvetica-Bold-100"/>
    </g>
   </g>
  </g>
 </g>
 <defs>
  <clipPath id="p1b711bf8c7">
   <rect height="86.4" width="151.2" x="32.4" y="28.8"/>
  </clipPath>
 </defs>
</svg>
